<?xml version="1.0" encoding="UTF-8"?>
<svg id="Ebene_1" xmlns="http://www.w3.org/2000/svg" version="1.1" viewBox="0 0 407 41">
  <!-- Generator: Adobe Illustrator 29.1.0, SVG Export Plug-In . SVG Version: 2.1.0 Build 142)  -->
  <path d="M17,14v3.9H3.7v-3.9h13.3ZM11.7,17.9l1.4-3c2.4,0,4.5.4,6.1,1.1,1.6.7,2.9,1.8,3.7,3,.8,1.3,1.2,2.7,1.2,4.3,0,3.1-1.1,5.5-3.4,7-2.3,1.5-5.5,2.3-9.8,2.3s-1.8,0-2.8-.1c-1,0-1.9-.1-2.9-.3-.9-.1-1.8-.3-2.6-.6-1.5-.4-2.3-1.3-2.3-2.6V3.4c0-.6.2-1,.5-1.3.3-.3.8-.6,1.3-.8,1.2-.3,2.4-.6,3.8-.7,1.4-.1,2.9-.2,4.4-.2,3.9,0,7,.7,9.2,2.1,2.2,1.4,3.3,3.5,3.3,6.4s-.4,2.8-1.2,4c-.7,1.2-1.9,2.1-3.6,2.9-1.6.7-3.7,1-6.3,1l-.4-2.8c2.1,0,3.6-.4,4.7-1.3,1.1-.9,1.6-2.1,1.6-3.6s-.6-2.7-1.8-3.5c-1.2-.8-3-1.2-5.4-1.2s-2,0-2.9.2c-.8,0-1.6.2-2.2.3v23.1c.7.2,1.6.3,2.7.4,1,.1,2,.2,3,.2,2.5,0,4.5-.4,5.8-1.3,1.4-.9,2-2.2,2-4s-.6-2.9-1.8-3.8c-1.2-1-3-1.4-5.3-1.4ZM31,12.6h5v19c-.2,0-.5.2-.9.3-.4.1-.9.2-1.4.2-.9,0-1.5-.3-2-.8-.5-.5-.7-1.2-.7-2V12.6ZM36.1,20.2h-5V3.7c0-.8.2-1.5.7-2,.5-.5,1.2-.8,2-.8s.9,0,1.4.2c.4.1.7.2.9.3v18.8ZM33.8,18.2v-4.2h15.4c.1.2.3.4.4.8.1.4.2.8.2,1.2,0,.7-.2,1.2-.5,1.6-.3.4-.8.6-1.4.6h-14ZM33.8,32.1v-4.2h17.1c.1.2.3.4.4.8.1.3.2.7.2,1.2,0,.7-.2,1.2-.5,1.6-.3.4-.8.6-1.4.6h-15.8ZM33.8,5.2V1h16.9c.1.2.2.5.3.9.1.3.2.7.2,1.1,0,.7-.2,1.2-.5,1.6-.3.4-.7.6-1.3.6h-15.6ZM70,5.1h-.2c-.5,1.3-1,2.9-1.7,4.7-.6,1.8-1.3,3.7-1.9,5.6-.6,1.9-1.3,3.7-1.9,5.5l-.4,1.7c-.2.6-.4,1.4-.7,2.2s-.6,1.7-.9,2.7c-.3.9-.6,1.8-.9,2.6-.3.8-.5,1.5-.7,2-.3.1-.6.2-.9.3-.3,0-.7.1-1.2.1-.7,0-1.4-.2-1.9-.5-.5-.4-.8-.9-.8-1.6s0-.7.2-1c.1-.4.2-.8.4-1.2.4-1.1.8-2.5,1.4-4.2.6-1.7,1.3-3.5,1.9-5.5.7-2,1.4-4,2.2-6,.8-2,1.5-4,2.2-5.9.7-1.9,1.4-3.6,1.9-5,.3-.2.8-.4,1.5-.6.7-.2,1.4-.3,2-.3s1.7.1,2.4.4c.8.3,1.3.7,1.5,1.3.8,1.9,1.6,4.1,2.5,6.6.9,2.4,1.8,5,2.7,7.7.9,2.7,1.8,5.2,2.6,7.8.8,2.5,1.5,4.8,2.2,6.8-.3.3-.6.6-1.1.8-.5.2-1,.3-1.6.3-.9,0-1.5-.2-1.9-.5-.4-.3-.7-.9-1-1.7l-2.5-7.6-.6-2.2c-.6-1.9-1.2-3.9-1.9-5.8-.6-1.9-1.3-3.7-1.8-5.4-.5-1.7-1-3.1-1.4-4.2ZM61.6,24.1l1.7-4.1h13.7l.9,4.1h-16.3ZM89.4,5.9l4.4-.3c.1,1.2.2,2.4.3,3.9.1,1.4.2,2.9.2,4.3,0,1.5.1,2.9.1,4.2v13.8c-.2,0-.5.2-1,.3-.4.1-.9.2-1.4.2-.9,0-1.6-.2-2-.5-.4-.4-.7-1-.7-1.8V5.9ZM114.7,27.1l-4.5.3c-.3-2.8-.5-5.6-.6-8.3,0-2.8,0-5.5,0-8.1V1c.2,0,.6-.1,1-.2.4-.1.9-.2,1.4-.2,1,0,1.6.2,2.1.6.4.3.7.9.7,1.7v24.1ZM114.7,25.3v-1.4,7.5c-.3.3-.8.5-1.4.7-.5.2-1.2.3-1.9.3s-1.7-.2-2.4-.5c-.7-.3-1.3-1-1.8-2l-8.8-15.1c-.5-.9-1-1.8-1.5-2.8-.5-1-1.1-2-1.6-2.9-.5-1-.9-1.8-1.2-2.4l-4.7,1.1V1.8c.3-.3.7-.6,1.3-.8.6-.2,1.3-.3,1.9-.3s1.7.2,2.4.5c.7.3,1.3,1,1.8,1.9l8.8,15.1c.5.9,1,1.8,1.5,2.9.5,1,1,2,1.5,2.9.5,1,.9,1.8,1.2,2.4l4.8-1.2Z" fill="#504027"/>
  <path d="M146.3,4.7c0,.5-.2,1-.5,1.4-.3.4-.7.7-1.1.9-.9-.6-1.9-1.2-3.1-1.7-1.2-.5-2.6-.8-4.4-.8s-3.8.5-5.4,1.4c-1.6.9-2.8,2.2-3.7,4-.9,1.8-1.3,4-1.3,6.6,0,3.9,1,6.9,2.9,8.9,2,2,4.5,3,7.7,3s3.2-.2,4.4-.7c1.3-.5,2.3-1.1,3.2-1.7.4.2.8.5,1.1,1,.3.4.5.9.5,1.4s-.1.9-.4,1.3c-.2.4-.6.7-1.2,1-.7.5-1.8,1-3.1,1.3-1.3.4-2.9.6-4.9.6-2.9,0-5.5-.6-7.9-1.8-2.3-1.2-4.1-3-5.5-5.4-1.4-2.4-2-5.4-2-9s.7-6.6,2.1-9c1.4-2.4,3.2-4.2,5.5-5.5,2.3-1.2,4.8-1.8,7.5-1.8s3.6.2,5,.7c1.5.4,2.6,1,3.4,1.6.8.6,1.2,1.3,1.2,2.1ZM181,16.5c0,3.5-.7,6.5-2,8.9-1.3,2.4-3.1,4.2-5.4,5.5-2.2,1.2-4.8,1.8-7.7,1.8s-5.4-.6-7.7-1.8c-2.3-1.2-4.1-3-5.4-5.5-1.3-2.4-1.9-5.4-1.9-8.9s.7-6.5,2-8.9c1.4-2.4,3.2-4.2,5.5-5.5,2.3-1.3,4.8-1.9,7.6-1.9s5.4.6,7.7,1.9c2.3,1.2,4.1,3,5.4,5.5,1.4,2.4,2,5.3,2,8.9ZM175.8,16.5c0-3.8-.9-6.8-2.7-8.8-1.8-2.1-4.1-3.1-7.1-3.1s-5.3,1-7.1,3.1c-1.8,2-2.7,5-2.7,8.8s.9,6.8,2.7,8.9c1.8,2.1,4.2,3.1,7.2,3.1s5.4-1,7.1-3.1c1.8-2.1,2.7-5,2.7-8.9ZM187.9,5.9l4.4-.3c.1,1.2.2,2.4.3,3.9.1,1.4.2,2.9.2,4.3,0,1.5.1,2.9.1,4.2v13.8c-.2,0-.5.2-1,.3s-.9.2-1.4.2c-.9,0-1.6-.2-2-.5-.4-.4-.7-1-.7-1.8V5.9ZM213.2,27.1l-4.5.3c-.3-2.8-.5-5.6-.6-8.3,0-2.8,0-5.5,0-8.1V1c.2,0,.6-.1,1-.2.4-.1.9-.2,1.4-.2,1,0,1.6.2,2.1.6.4.3.7.9.7,1.7v24.1ZM213.2,25.3v-1.4,7.5c-.3.3-.8.5-1.4.7-.5.2-1.2.3-1.9.3s-1.7-.2-2.4-.5c-.7-.3-1.3-1-1.8-2l-8.8-15.1c-.5-.9-1-1.8-1.5-2.8-.5-1-1.1-2-1.6-2.9-.5-1-.9-1.8-1.2-2.4l-4.7,1.1V1.8c.3-.3.7-.6,1.3-.8.6-.2,1.3-.3,1.9-.3s1.7.2,2.4.5c.7.3,1.3,1,1.8,1.9l8.8,15.1c.5.9,1,1.8,1.5,2.9.5,1,1,2,1.5,2.9.5,1,.9,1.8,1.2,2.4l4.8-1.2ZM234.4,31.9l5-1.3c1.9,1.1,3.5,2,4.9,2.6s2.6,1.2,3.7,1.6c1.2.5,2.3.9,3.5,1.4,0,.2.1.4.1.6v.5c0,.9-.3,1.6-.8,2-.5.5-1.2.8-2.1.8s-2.6-.5-4.4-1.4c-1.7-.9-3.7-2.2-5.8-3.7l-4.2-3ZM250.2,16.5c0,3.5-.7,6.5-2,8.9-1.3,2.4-3.1,4.2-5.4,5.5-2.2,1.2-4.8,1.8-7.7,1.8s-5.4-.6-7.7-1.8c-2.3-1.3-4.1-3.1-5.4-5.5-1.3-2.4-1.9-5.4-1.9-8.9s.7-6.5,2-8.9c1.4-2.4,3.2-4.2,5.5-5.5,2.3-1.2,4.8-1.8,7.6-1.8s5.4.6,7.6,1.8c2.3,1.2,4.1,3,5.4,5.5,1.4,2.4,2,5.4,2,8.9ZM245,16.5c0-3.8-.9-6.8-2.7-8.8-1.8-2.1-4.1-3.1-7.1-3.1s-5.3,1-7.1,3.1c-1.8,2-2.7,5-2.7,8.8s.9,6.8,2.7,8.9c1.8,2,4.2,3.1,7.2,3.1s5.4-1,7.1-3.1c1.8-2.1,2.7-5,2.7-8.9ZM269.5,32.7c-2.6,0-4.9-.5-6.7-1.4-1.8-1-3.2-2.3-4.2-4-1-1.7-1.4-3.8-1.4-6.1v-4h5.1v3.6c0,2.5.7,4.4,2,5.7,1.4,1.3,3.1,1.9,5.3,1.9s3.8-.6,5.2-1.9c1.4-1.3,2.1-3.2,2.1-5.7v-3.6h5.1v4c0,2.3-.5,4.3-1.5,6.1-1,1.7-2.4,3.1-4.2,4-1.8,1-4.1,1.4-6.7,1.4ZM262.2,19.1h-5.1V1.1c.2,0,.5-.2,1-.3.4-.1.9-.2,1.4-.2,1,0,1.6.2,2.1.6.4.3.7.9.7,1.8v16.1ZM281.9,19.1h-5.1V1.1c.2,0,.5-.2,1-.3.4-.1.9-.2,1.4-.2,1,0,1.6.2,2.1.6.4.3.7.9.7,1.8v16.1ZM290.4,12.6h5v19c-.2,0-.5.2-.9.3-.4.1-.9.2-1.4.2-.9,0-1.5-.3-2-.8-.5-.5-.7-1.2-.7-2V12.6ZM295.5,20.2h-5V3.7c0-.8.2-1.5.7-2,.5-.5,1.2-.8,2-.8s.9,0,1.4.2c.4.1.7.2.9.3v18.8ZM293.2,18.2v-4.2h15.4c.1.2.3.4.4.8.1.4.2.8.2,1.2,0,.7-.2,1.2-.5,1.6-.3.4-.8.6-1.4.6h-14ZM293.2,32.1v-4.2h17.1c.1.2.3.4.4.8.1.3.2.7.2,1.2,0,.7-.2,1.2-.5,1.6-.3.4-.8.6-1.4.6h-15.8ZM293.2,5.2V1h16.9c.1.2.2.5.3.9.1.3.2.7.2,1.1,0,.7-.2,1.2-.5,1.6-.3.4-.7.6-1.3.6h-15.6ZM322.8,16.5h5.2c2.3,0,4.1-.5,5.4-1.5,1.3-1,2-2.5,2-4.5s-.7-3.4-2-4.4c-1.4-1-3.3-1.5-5.9-1.5s-1.6,0-2.4.1c-.8,0-1.5.2-2.2.3v11.5ZM328.1,20.6h-10.5V3.4c0-.6.2-1,.5-1.3.3-.3.8-.6,1.3-.8,1-.3,2.3-.5,3.7-.7,1.5-.2,2.9-.3,4.3-.3,4.4,0,7.6.9,9.7,2.7,2.2,1.8,3.3,4.2,3.3,7.4s-.5,3.8-1.5,5.4c-1,1.5-2.3,2.7-4.2,3.5-1.8.9-4.1,1.3-6.7,1.3ZM327.8,19.1l4.1-1.5c.9,1.2,1.9,2.3,2.8,3.6,1,1.2,1.9,2.4,2.8,3.6.9,1.2,1.7,2.2,2.4,3.1.7.9,1.3,1.7,1.7,2.2-.2.7-.5,1.2-1.1,1.6-.5.4-1.1.6-1.7.6s-1.4-.2-1.8-.6c-.4-.4-.9-.9-1.4-1.5l-7.8-11.2ZM317.7,19h5.2v12.9c-.2,0-.6.2-1,.3-.4.1-.9.2-1.4.2-1,0-1.6-.2-2.1-.6-.4-.4-.7-1-.7-1.8v-10.9ZM376,16.5c0,3.5-.7,6.5-2,8.9-1.3,2.4-3.1,4.2-5.4,5.5-2.2,1.2-4.8,1.8-7.7,1.8s-5.4-.6-7.7-1.8c-2.3-1.2-4.1-3-5.4-5.5-1.3-2.4-1.9-5.4-1.9-8.9s.7-6.5,2-8.9c1.4-2.4,3.2-4.2,5.5-5.5,2.3-1.3,4.8-1.9,7.6-1.9s5.4.6,7.6,1.9c2.3,1.2,4.1,3,5.4,5.5,1.4,2.4,2,5.3,2,8.9ZM370.8,16.5c0-3.8-.9-6.8-2.7-8.8-1.8-2.1-4.1-3.1-7.1-3.1s-5.3,1-7.1,3.1c-1.8,2-2.7,5-2.7,8.8s.9,6.8,2.7,8.9c1.8,2.1,4.2,3.1,7.2,3.1s5.4-1,7.1-3.1c1.8-2.1,2.7-5,2.7-8.9ZM388,16.5h5.2c2.3,0,4.1-.5,5.4-1.5,1.3-1,2-2.5,2-4.5s-.7-3.4-2-4.4c-1.4-1-3.3-1.5-5.9-1.5s-1.6,0-2.4.1c-.8,0-1.5.2-2.2.3v11.5ZM393.4,20.6h-10.5V3.4c0-.6.2-1,.5-1.3.3-.3.8-.6,1.3-.8,1-.3,2.3-.5,3.7-.7,1.5-.2,2.9-.3,4.3-.3,4.4,0,7.6.9,9.7,2.7,2.2,1.8,3.3,4.2,3.3,7.4s-.5,3.8-1.5,5.4c-1,1.5-2.3,2.7-4.2,3.5-1.8.9-4.1,1.3-6.7,1.3ZM393.1,19.1l4.1-1.5c.9,1.2,1.9,2.3,2.8,3.6,1,1.2,1.9,2.4,2.8,3.6.9,1.2,1.7,2.2,2.4,3.1s1.3,1.7,1.7,2.2c-.2.7-.5,1.2-1.1,1.6-.5.4-1.1.6-1.7.6s-1.4-.2-1.8-.6c-.4-.4-.9-.9-1.4-1.5l-7.8-11.2ZM382.9,19h5.2v12.9c-.2,0-.6.2-1,.3-.4.1-.9.2-1.4.2-1,0-1.6-.2-2.1-.6-.4-.4-.7-1-.7-1.8v-10.9Z" fill="#b88265"/>
</svg>