<svg width="407" height="41" viewBox="0 0 407 41" fill="none" xmlns="http://www.w3.org/2000/svg">
<path d="M17.012 13.997V17.924H3.701V13.997H17.012ZM11.657 17.924L13.034 14.915C15.482 14.915 17.505 15.289 19.103 16.037C20.735 16.785 21.959 17.788 22.775 19.046C23.591 20.304 23.999 21.732 23.999 23.33C23.999 26.458 22.86 28.787 20.582 30.317C18.304 31.847 15.04 32.612 10.79 32.612C9.906 32.612 8.988 32.578 8.036 32.51C7.084 32.476 6.132 32.374 5.18 32.204C4.262 32.068 3.395 31.881 2.579 31.643C1.049 31.201 0.284 30.334 0.284 29.042V3.389C0.284 2.811 0.437 2.369 0.743 2.063C1.083 1.723 1.525 1.468 2.069 1.298C3.225 0.957997 4.5 0.719997 5.894 0.583997C7.288 0.447999 8.767 0.38 10.331 0.38C14.275 0.38 17.335 1.077 19.511 2.471C21.721 3.865 22.826 6.007 22.826 8.897C22.826 10.359 22.435 11.685 21.653 12.875C20.905 14.065 19.715 15.017 18.083 15.731C16.451 16.411 14.343 16.751 11.759 16.751L11.351 13.997C13.425 13.997 14.989 13.572 16.043 12.722C17.097 11.872 17.624 10.665 17.624 9.101C17.624 7.571 17.012 6.415 15.788 5.633C14.564 4.851 12.762 4.46 10.382 4.46C9.328 4.46 8.376 4.511 7.526 4.613C6.71 4.681 5.962 4.766 5.282 4.868V27.971C6.03 28.141 6.914 28.277 7.934 28.379C8.954 28.481 9.957 28.532 10.943 28.532C13.459 28.532 15.397 28.09 16.757 27.206C18.117 26.322 18.797 24.979 18.797 23.177C18.797 21.545 18.185 20.27 16.961 19.352C15.771 18.4 14.003 17.924 11.657 17.924ZM31.0135 12.569H36.0625V31.592C35.8925 31.66 35.5865 31.762 35.1445 31.898C34.7025 32 34.2435 32.051 33.7675 32.051C32.9175 32.051 32.2375 31.796 31.7275 31.286C31.2515 30.776 31.0135 30.113 31.0135 29.297V12.569ZM36.0625 20.219H31.0135V3.746C31.0135 2.93 31.2515 2.267 31.7275 1.757C32.2375 1.247 32.9175 0.991998 33.7675 0.991998C34.2435 0.991998 34.7025 1.043 35.1445 1.145C35.5865 1.247 35.8925 1.349 36.0625 1.451V20.219ZM33.7675 18.23V14.048H49.1185C49.2545 14.218 49.3735 14.49 49.4755 14.864C49.6115 15.238 49.6795 15.629 49.6795 16.037C49.6795 16.717 49.5095 17.261 49.1695 17.669C48.8635 18.043 48.4045 18.23 47.7925 18.23H33.7675ZM33.7675 32.051V27.869H50.9035C51.0395 28.039 51.1585 28.311 51.2605 28.685C51.3965 29.025 51.4645 29.416 51.4645 29.858C51.4645 30.538 51.2945 31.082 50.9545 31.49C50.6485 31.864 50.1895 32.051 49.5775 32.051H33.7675ZM33.7675 5.225V0.991998H50.6995C50.8015 1.196 50.9035 1.485 51.0055 1.859C51.1415 2.199 51.2095 2.573 51.2095 2.981C51.2095 3.661 51.0395 4.205 50.6995 4.613C50.3935 5.021 49.9515 5.225 49.3735 5.225H33.7675ZM70.0221 5.072H69.8181C69.3421 6.398 68.7811 7.962 68.1351 9.764C67.5231 11.566 66.8771 13.436 66.1971 15.374C65.5511 17.278 64.9221 19.097 64.3101 20.831L63.9021 22.565C63.6981 23.211 63.4601 23.959 63.1881 24.809C62.9161 25.659 62.6271 26.543 62.3211 27.461C62.0151 28.379 61.7261 29.246 61.4541 30.062C61.1821 30.878 60.9611 31.541 60.7911 32.051C60.5191 32.187 60.2301 32.289 59.9241 32.357C59.6181 32.425 59.2271 32.459 58.7511 32.459C58.0031 32.459 57.3741 32.289 56.8641 31.949C56.3541 31.575 56.0991 31.031 56.0991 30.317C56.0991 29.977 56.1501 29.637 56.2521 29.297C56.3541 28.923 56.4731 28.515 56.6091 28.073C56.9831 26.951 57.4591 25.557 58.0371 23.891C58.6491 22.191 59.2951 20.355 59.9751 18.383C60.6891 16.411 61.4201 14.405 62.1681 12.365C62.9501 10.325 63.6811 8.37 64.3611 6.5C65.0751 4.596 65.7211 2.93 66.2991 1.502C66.6391 1.298 67.1491 1.111 67.8291 0.940999C68.5091 0.770999 69.1891 0.685999 69.8691 0.685999C70.7531 0.685999 71.5691 0.821999 72.3171 1.094C73.0991 1.366 73.5921 1.791 73.7961 2.369C74.5781 4.307 75.4111 6.517 76.2951 8.999C77.1791 11.447 78.0801 14.014 78.9981 16.7C79.9161 19.352 80.7831 21.936 81.5991 24.452C82.4151 26.968 83.1461 29.246 83.7921 31.286C83.5201 31.626 83.1461 31.898 82.6701 32.102C82.1941 32.306 81.6671 32.408 81.0891 32.408C80.2391 32.408 79.6101 32.238 79.2021 31.898C78.7941 31.558 78.4711 30.997 78.2331 30.215L75.7341 22.616L75.1731 20.423C74.5611 18.485 73.9321 16.564 73.2861 14.66C72.6401 12.722 72.0281 10.92 71.4501 9.254C70.9061 7.588 70.4301 6.194 70.0221 5.072ZM61.5561 24.095L63.2901 20.015H76.9581L77.8251 24.095H61.5561ZM89.4344 5.939L93.8714 5.684C94.0074 6.84 94.1094 8.132 94.1774 9.56C94.2794 10.988 94.3474 12.433 94.3814 13.895C94.4494 15.357 94.4834 16.751 94.4834 18.077V31.898C94.2794 31.966 93.9564 32.051 93.5144 32.153C93.0724 32.255 92.6134 32.306 92.1374 32.306C91.2194 32.306 90.5394 32.136 90.0974 31.796C89.6554 31.422 89.4344 30.827 89.4344 30.011V5.939ZM114.73 27.053L110.242 27.308C109.936 24.52 109.749 21.749 109.681 18.995C109.647 16.207 109.63 13.521 109.63 10.937V1.043C109.868 0.974998 110.191 0.906999 110.599 0.839C111.041 0.736999 111.5 0.685999 111.976 0.685999C112.928 0.685999 113.625 0.872998 114.067 1.247C114.509 1.587 114.73 2.165 114.73 2.981V27.053ZM114.73 25.268V23.84V31.337C114.39 31.609 113.931 31.83 113.353 32C112.809 32.204 112.18 32.306 111.466 32.306C110.548 32.306 109.749 32.153 109.069 31.847C108.389 31.507 107.777 30.844 107.233 29.858L98.4614 14.762C97.9854 13.878 97.4754 12.943 96.9314 11.957C96.3874 10.937 95.8604 9.968 95.3504 9.05C94.8744 8.098 94.4834 7.282 94.1774 6.602L89.4344 7.724V1.808C89.7404 1.468 90.1824 1.196 90.7604 0.991998C91.3724 0.787999 92.0184 0.685999 92.6984 0.685999C93.6164 0.685999 94.4154 0.855999 95.0954 1.196C95.8094 1.536 96.4214 2.182 96.9314 3.134L105.754 18.23C106.23 19.114 106.74 20.066 107.284 21.086C107.828 22.072 108.321 23.041 108.763 23.993C109.239 24.945 109.63 25.761 109.936 26.441L114.73 25.268Z" fill="#504027"/>
<path d="M146.303 4.664C146.303 5.174 146.133 5.65 145.793 6.092C145.487 6.5 145.13 6.806 144.722 7.01C143.872 6.398 142.852 5.837 141.662 5.327C140.506 4.817 139.027 4.562 137.225 4.562C135.219 4.562 133.434 5.021 131.87 5.939C130.306 6.823 129.065 8.166 128.147 9.968C127.263 11.736 126.821 13.929 126.821 16.547C126.821 20.491 127.79 23.466 129.728 25.472C131.7 27.478 134.267 28.481 137.429 28.481C139.129 28.481 140.608 28.243 141.866 27.767C143.124 27.257 144.178 26.696 145.028 26.084C145.436 26.288 145.793 26.611 146.099 27.053C146.405 27.461 146.558 27.937 146.558 28.481C146.558 28.923 146.439 29.348 146.201 29.756C145.963 30.13 145.572 30.47 145.028 30.776C144.28 31.286 143.243 31.728 141.917 32.102C140.625 32.51 138.976 32.714 136.97 32.714C134.08 32.714 131.462 32.119 129.116 30.929C126.804 29.739 124.968 27.954 123.608 25.574C122.248 23.16 121.568 20.151 121.568 16.547C121.568 12.977 122.265 9.985 123.659 7.571C125.053 5.157 126.889 3.338 129.167 2.114C131.479 0.889998 133.995 0.277998 136.715 0.277998C138.619 0.277998 140.285 0.498998 141.713 0.940999C143.175 1.349 144.297 1.893 145.079 2.573C145.895 3.219 146.303 3.916 146.303 4.664ZM181.044 16.496C181.044 20.032 180.381 23.007 179.055 25.421C177.729 27.835 175.927 29.654 173.649 30.878C171.405 32.102 168.838 32.714 165.948 32.714C163.126 32.714 160.559 32.102 158.247 30.878C155.969 29.654 154.167 27.835 152.841 25.421C151.549 23.007 150.903 20.032 150.903 16.496C150.903 12.96 151.566 10.002 152.892 7.622C154.252 5.208 156.071 3.389 158.349 2.165C160.627 0.906998 163.16 0.277998 165.948 0.277998C168.804 0.277998 171.354 0.906998 173.598 2.165C175.876 3.389 177.678 5.208 179.004 7.622C180.364 10.002 181.044 12.96 181.044 16.496ZM175.791 16.496C175.791 12.654 174.89 9.713 173.088 7.673C171.32 5.599 168.94 4.562 165.948 4.562C163.024 4.562 160.661 5.599 158.859 7.673C157.057 9.713 156.156 12.654 156.156 16.496C156.156 20.338 157.04 23.296 158.808 25.37C160.61 27.444 163.007 28.481 165.999 28.481C168.991 28.481 171.371 27.444 173.139 25.37C174.907 23.296 175.791 20.338 175.791 16.496ZM187.948 5.939L192.385 5.684C192.521 6.84 192.623 8.132 192.691 9.56C192.793 10.988 192.861 12.433 192.895 13.895C192.963 15.357 192.997 16.751 192.997 18.077V31.898C192.793 31.966 192.47 32.051 192.028 32.153C191.586 32.255 191.127 32.306 190.651 32.306C189.733 32.306 189.053 32.136 188.611 31.796C188.169 31.422 187.948 30.827 187.948 30.011V5.939ZM213.244 27.053L208.756 27.308C208.45 24.52 208.263 21.749 208.195 18.995C208.161 16.207 208.144 13.521 208.144 10.937V1.043C208.382 0.974998 208.705 0.906999 209.113 0.839C209.555 0.736999 210.014 0.685999 210.49 0.685999C211.442 0.685999 212.139 0.872998 212.581 1.247C213.023 1.587 213.244 2.165 213.244 2.981V27.053ZM213.244 25.268V23.84V31.337C212.904 31.609 212.445 31.83 211.867 32C211.323 32.204 210.694 32.306 209.98 32.306C209.062 32.306 208.263 32.153 207.583 31.847C206.903 31.507 206.291 30.844 205.747 29.858L196.975 14.762C196.499 13.878 195.989 12.943 195.445 11.957C194.901 10.937 194.374 9.968 193.864 9.05C193.388 8.098 192.997 7.282 192.691 6.602L187.948 7.724V1.808C188.254 1.468 188.696 1.196 189.274 0.991998C189.886 0.787999 190.532 0.685999 191.212 0.685999C192.13 0.685999 192.929 0.855999 193.609 1.196C194.323 1.536 194.935 2.182 195.445 3.134L204.268 18.23C204.744 19.114 205.254 20.066 205.798 21.086C206.342 22.072 206.835 23.041 207.277 23.993C207.753 24.945 208.144 25.761 208.45 26.441L213.244 25.268ZM234.412 31.949L239.41 30.623C241.314 31.711 242.946 32.578 244.306 33.224C245.666 33.87 246.907 34.414 248.029 34.856C249.185 35.332 250.358 35.791 251.548 36.233C251.616 36.471 251.65 36.658 251.65 36.794C251.65 36.964 251.65 37.117 251.65 37.253C251.65 38.137 251.395 38.817 250.885 39.293C250.375 39.803 249.661 40.058 248.743 40.058C247.587 40.058 246.125 39.599 244.357 38.681C242.623 37.763 240.702 36.522 238.594 34.958L234.412 31.949ZM250.222 16.496C250.222 20.032 249.559 23.007 248.233 25.421C246.907 27.801 245.105 29.62 242.827 30.878C240.583 32.102 238.016 32.714 235.126 32.714C232.304 32.714 229.737 32.102 227.425 30.878C225.147 29.62 223.345 27.801 222.019 25.421C220.727 23.007 220.081 20.032 220.081 16.496C220.081 12.96 220.744 9.985 222.07 7.571C223.43 5.157 225.249 3.338 227.527 2.114C229.805 0.889998 232.338 0.277998 235.126 0.277998C237.982 0.277998 240.532 0.889998 242.776 2.114C245.054 3.338 246.856 5.157 248.182 7.571C249.542 9.985 250.222 12.96 250.222 16.496ZM244.969 16.496C244.969 12.654 244.068 9.713 242.266 7.673C240.498 5.599 238.118 4.562 235.126 4.562C232.202 4.562 229.839 5.599 228.037 7.673C226.235 9.713 225.334 12.654 225.334 16.496C225.334 20.338 226.218 23.296 227.986 25.37C229.788 27.41 232.185 28.43 235.177 28.43C238.169 28.43 240.549 27.41 242.317 25.37C244.085 23.296 244.969 20.338 244.969 16.496ZM269.519 32.714C266.901 32.714 264.657 32.238 262.787 31.286C260.951 30.334 259.54 28.991 258.554 27.257C257.602 25.523 257.126 23.5 257.126 21.188V17.21H262.226V20.831C262.226 23.347 262.906 25.251 264.266 26.543C265.66 27.835 267.411 28.481 269.519 28.481C271.593 28.481 273.327 27.835 274.721 26.543C276.115 25.251 276.812 23.347 276.812 20.831V17.21H281.912V21.188C281.912 23.5 281.419 25.523 280.433 27.257C279.481 28.991 278.07 30.334 276.2 31.286C274.364 32.238 272.137 32.714 269.519 32.714ZM262.226 19.148H257.126V1.094C257.33 1.026 257.653 0.940999 258.095 0.839C258.537 0.736999 258.996 0.685999 259.472 0.685999C260.424 0.685999 261.121 0.872998 261.563 1.247C262.005 1.587 262.226 2.182 262.226 3.032V19.148ZM281.912 19.148H276.812V1.094C277.016 1.026 277.339 0.940999 277.781 0.839C278.223 0.736999 278.682 0.685999 279.158 0.685999C280.11 0.685999 280.807 0.872998 281.249 1.247C281.691 1.587 281.912 2.182 281.912 3.032V19.148ZM290.446 12.569H295.495V31.592C295.325 31.66 295.019 31.762 294.577 31.898C294.135 32 293.676 32.051 293.2 32.051C292.35 32.051 291.67 31.796 291.16 31.286C290.684 30.776 290.446 30.113 290.446 29.297V12.569ZM295.495 20.219H290.446V3.746C290.446 2.93 290.684 2.267 291.16 1.757C291.67 1.247 292.35 0.991998 293.2 0.991998C293.676 0.991998 294.135 1.043 294.577 1.145C295.019 1.247 295.325 1.349 295.495 1.451V20.219ZM293.2 18.23V14.048H308.551C308.687 14.218 308.806 14.49 308.908 14.864C309.044 15.238 309.112 15.629 309.112 16.037C309.112 16.717 308.942 17.261 308.602 17.669C308.296 18.043 307.837 18.23 307.225 18.23H293.2ZM293.2 32.051V27.869H310.336C310.472 28.039 310.591 28.311 310.693 28.685C310.829 29.025 310.897 29.416 310.897 29.858C310.897 30.538 310.727 31.082 310.387 31.49C310.081 31.864 309.622 32.051 309.01 32.051H293.2ZM293.2 5.225V0.991998H310.132C310.234 1.196 310.336 1.485 310.438 1.859C310.574 2.199 310.642 2.573 310.642 2.981C310.642 3.661 310.472 4.205 310.132 4.613C309.826 5.021 309.384 5.225 308.806 5.225H293.2ZM322.789 16.496H327.991C330.269 16.496 332.071 16.003 333.397 15.017C334.723 13.997 335.386 12.501 335.386 10.529C335.386 8.591 334.706 7.129 333.346 6.143C331.986 5.123 330.014 4.613 327.43 4.613C326.614 4.613 325.798 4.647 324.982 4.715C324.166 4.783 323.435 4.885 322.789 5.021V16.496ZM328.144 20.627H317.689V3.389C317.689 2.811 317.842 2.369 318.148 2.063C318.488 1.757 318.93 1.502 319.474 1.298C320.494 0.991999 321.735 0.771 323.197 0.635C324.659 0.465 326.104 0.38 327.532 0.38C331.884 0.38 335.131 1.281 337.273 3.083C339.449 4.851 340.537 7.316 340.537 10.478C340.537 12.518 340.044 14.303 339.058 15.833C338.106 17.329 336.712 18.502 334.876 19.352C333.04 20.202 330.796 20.627 328.144 20.627ZM327.838 19.148L331.918 17.618C332.836 18.774 333.771 19.964 334.723 21.188C335.709 22.412 336.644 23.619 337.528 24.809C338.446 25.965 339.262 27.002 339.976 27.92C340.69 28.838 341.251 29.586 341.659 30.164C341.489 30.844 341.115 31.388 340.537 31.796C339.993 32.204 339.432 32.408 338.854 32.408C338.072 32.408 337.46 32.221 337.018 31.847C336.576 31.473 336.117 30.963 335.641 30.317L327.838 19.148ZM317.689 19.046H322.84V31.898C322.602 31.966 322.262 32.051 321.82 32.153C321.412 32.255 320.953 32.306 320.443 32.306C319.491 32.306 318.794 32.119 318.352 31.745C317.91 31.371 317.689 30.759 317.689 29.909V19.046ZM376.029 16.496C376.029 20.032 375.366 23.007 374.04 25.421C372.714 27.835 370.912 29.654 368.634 30.878C366.39 32.102 363.823 32.714 360.933 32.714C358.111 32.714 355.544 32.102 353.232 30.878C350.954 29.654 349.152 27.835 347.826 25.421C346.534 23.007 345.888 20.032 345.888 16.496C345.888 12.96 346.551 10.002 347.877 7.622C349.237 5.208 351.056 3.389 353.334 2.165C355.612 0.906998 358.145 0.277998 360.933 0.277998C363.789 0.277998 366.339 0.906998 368.583 2.165C370.861 3.389 372.663 5.208 373.989 7.622C375.349 10.002 376.029 12.96 376.029 16.496ZM370.776 16.496C370.776 12.654 369.875 9.713 368.073 7.673C366.305 5.599 363.925 4.562 360.933 4.562C358.009 4.562 355.646 5.599 353.844 7.673C352.042 9.713 351.141 12.654 351.141 16.496C351.141 20.338 352.025 23.296 353.793 25.37C355.595 27.444 357.992 28.481 360.984 28.481C363.976 28.481 366.356 27.444 368.124 25.37C369.892 23.296 370.776 20.338 370.776 16.496ZM388.033 16.496H393.235C395.513 16.496 397.315 16.003 398.641 15.017C399.967 13.997 400.63 12.501 400.63 10.529C400.63 8.591 399.95 7.129 398.59 6.143C397.23 5.123 395.258 4.613 392.674 4.613C391.858 4.613 391.042 4.647 390.226 4.715C389.41 4.783 388.679 4.885 388.033 5.021V16.496ZM393.388 20.627H382.933V3.389C382.933 2.811 383.086 2.369 383.392 2.063C383.732 1.757 384.174 1.502 384.718 1.298C385.738 0.991999 386.979 0.771 388.441 0.635C389.903 0.465 391.348 0.38 392.776 0.38C397.128 0.38 400.375 1.281 402.517 3.083C404.693 4.851 405.781 7.316 405.781 10.478C405.781 12.518 405.288 14.303 404.302 15.833C403.35 17.329 401.956 18.502 400.12 19.352C398.284 20.202 396.04 20.627 393.388 20.627ZM393.082 19.148L397.162 17.618C398.08 18.774 399.015 19.964 399.967 21.188C400.953 22.412 401.888 23.619 402.772 24.809C403.69 25.965 404.506 27.002 405.22 27.92C405.934 28.838 406.495 29.586 406.903 30.164C406.733 30.844 406.359 31.388 405.781 31.796C405.237 32.204 404.676 32.408 404.098 32.408C403.316 32.408 402.704 32.221 402.262 31.847C401.82 31.473 401.361 30.963 400.885 30.317L393.082 19.148ZM382.933 19.046H388.084V31.898C387.846 31.966 387.506 32.051 387.064 32.153C386.656 32.255 386.197 32.306 385.687 32.306C384.735 32.306 384.038 32.119 383.596 31.745C383.154 31.371 382.933 30.759 382.933 29.909V19.046Z" fill="#B88265"/>
</svg>
