<?xml version="1.0" encoding="UTF-8"?>
<svg id="Ebene_1" xmlns="http://www.w3.org/2000/svg" xmlns:xlink="http://www.w3.org/1999/xlink" version="1.1" viewBox="0 0 1024 1024">
  <!-- Generator: Adobe Illustrator 29.1.0, SVG Export Plug-In . SVG Version: 2.1.0 Build 142)  -->
  <defs>
    <style>
      .st0 {
        fill: #6d4b3d;
      }

      .st1 {
        fill: #dda494;
      }

      .st2, .st3, .st4 {
        isolation: isolate;
      }

      .st5 {
        fill: #b88366;
      }

      .st6 {
        fill: #aa7661;
      }

      .st3 {
        opacity: .3;
      }

      .st3, .st4 {
        mix-blend-mode: multiply;
      }

      .st4 {
        opacity: .2;
      }

      .st7 {
        fill: #ead9c4;
      }
    </style>
  </defs>
  <g class="st2">
    <g id="Ebene_2">
      <g id="Color_Logo">
        <circle class="st7" cx="512" cy="512" r="422.1"/>
        <image class="st3" width="2113" height="2572" transform="translate(299.1 226.8) scale(.2)" xlink:href="logo-1.png"/>
        <path class="st6" d="M420.9,785.9c-1.7-4.9-4.8-6.1-8-9.1-4.6-4.3-8.9-3.6-16.9-5.4-1.6-.3-11.3,5-12.4,3.8-73.2-85.4-75.3-231.3,2.6-354.4,88.1-139.3,238.8-202.9,352.8-141.9,1.2.7-3,8.3-2.1,10.5,2,5.4,8.4,7.7,11.3,9.5"/>
        <image class="st4" width="2197" height="2638" transform="translate(391.7 270) scale(.2)" xlink:href="logo-2.png"/>
        <path class="st5" d="M748.1,299c3,1.9,21.1-1.4,24,.7,106.7,75.8,118.2,243.1,29.2,383.9-91.4,144.5-258.5,202.8-373.1,130.3-6.3-4-1.1-10.1-7.3-27.9"/>
        <path class="st1" d="M747.3,301.4l-143.5,171.9-52,149.8-135.8,148,3.8,6.9,4.5,23.8s145-124.4,157.7-152.6,44.7-135.8,59.7-156l138.9-187.3-12.3-7.3-20.8,2.8Z"/>
        <path class="st0" d="M736.7,288.5s-145.1,162.6-152.9,185.2-39.5,131.3-52,149.7-135.8,148-135.8,148l16.9,5.4,8.2,9.4s131.2-115.1,143-135.8,45.5-138.6,57.3-156.8,150.3-194.4,150.3-194.4l-23.8-.2-11.4-10.5Z"/>
        <image class="st3" width="2069" height="2606" transform="translate(135.7 276.2) scale(.2)" xlink:href="logo-3.png"/>
        <path class="st6" d="M574.2,806c-5.2-.5-7.6,1.8-11.7,3.5-5.8,2.4-7,6.6-12,13.1-1,1.3-.2,12.4-1.7,12.8-108.1,30.8-241.6-28.2-320.9-150.5-89.7-138.3-84.5-301.7,18.6-379.8,1.1-.8,6.3,6.1,8.6,6.3,5.7.5,10.5-4.4,13.4-6.3"/>
        <image class="st3" width="2162" height="2676" transform="translate(239.6 228.2) scale(.2)" xlink:href="logo-4.png"/>
        <path class="st5" d="M268.6,305.3c3-1.9,7.6-19.8,10.6-21.5,113.5-65.3,270.3-5.8,360.9,133.9,93.1,143.5,76.2,319.6-37.5,393.4-6.3,4.1-9.7-3.2-28.4-5.1"/>
        <path class="st1" d="M268.6,306.7l96.2,202.3,114.3,109.9,77.7,185.1,7.9-.6,23.5,5.9s-52.5-183.7-72.8-207-104.6-97.3-116.7-119.3l-112.1-204.5-11.7,8.2-6.1,20.1Z"/>
        <path class="st0" d="M254.2,311.3s87.1,199.8,104.4,216.3,102.8,90.7,114.3,109.9,77.7,185.2,77.7,185.2l12-13.1,12-3.6s-49.7-167.4-63.5-186.7-107-99.2-118.5-117.6-113.8-217.8-113.8-217.8l-10.1,21.5-14.3,6Z"/>
      </g>
    </g>
  </g>
</svg>