<svg width="512" height="288" viewBox="0 0 512 288" fill="none" xmlns="http://www.w3.org/2000/svg">
<path d="M288.831 248.876L271.449 198.093L269.818 190.445C269.818 190.445 273.401 187.931 273.508 182.181C273.588 176.432 270.112 168.008 267.919 167.018C265.699 166.029 264.576 165.761 263.694 167.553C263.694 167.553 261.207 163.97 258.88 164.986C256.554 166.002 256.741 168.944 256.741 168.944C256.741 168.944 253.478 164.932 251.927 165.788C250.376 166.644 249.975 171.591 249.975 171.591C249.975 171.591 247.247 169.479 245.91 170.281C244.573 171.083 244.787 176.485 244.787 176.485C244.787 176.485 237.62 182.85 239.572 187.717C241.525 192.584 248.879 193.466 249.734 195.526C250.59 197.585 259.95 272.088 259.95 272.088L288.831 248.876Z" fill="#F8F6F4"/>
<path d="M289.553 248.608C281.878 226.84 270.566 193.653 270.566 190.711C270.806 190.284 271.181 189.856 271.609 189.374C272.865 187.957 274.55 186.005 274.283 182.127C273.935 177.34 271.823 169.05 268.373 166.376C267.517 165.708 265.485 164.691 263.987 165.654C263.746 165.815 263.532 166.028 263.345 166.242C262.944 165.547 262.356 164.825 261.554 164.397C260.644 163.916 259.655 163.862 258.612 164.237C257.81 164.531 257.141 165.173 256.713 166.109C256.553 166.456 256.419 166.857 256.312 167.259C256.205 167.098 256.071 166.964 255.938 166.804C254.494 165.253 252.862 164.718 251.231 165.28C249.787 165.788 249.092 167.339 249.118 169.853C248.557 169.505 247.862 169.184 247.113 169.131C246.23 169.077 245.401 169.371 244.706 169.986C244.144 170.468 243.609 171.591 243.823 175.763C242.46 177.18 236.015 184.4 239.277 189.321C241.096 192.102 243.716 193.225 245.829 194.108C247.594 194.857 248.985 195.445 249.466 196.728C250.455 199.403 256.793 252.138 259.147 272.222C259.2 272.65 259.548 272.944 259.949 272.944C259.976 272.944 260.002 272.944 260.056 272.89C260.484 272.837 260.805 272.436 260.751 272.008C260.404 269.066 252.274 199.563 250.99 196.14C250.268 194.215 248.423 193.439 246.471 192.61C244.465 191.754 242.192 190.792 240.614 188.412C238.502 185.229 242.032 180.309 243.984 177.982C244.011 178.143 244.011 178.33 244.037 178.49C244.358 181.913 244.893 185.229 244.893 185.256C244.973 185.657 245.321 185.925 245.695 185.925C245.749 185.925 245.802 185.925 245.829 185.925C246.284 185.871 246.578 185.443 246.498 185.015C245.401 178.303 245.08 171.965 245.776 171.19C246.177 170.842 246.551 170.708 247.006 170.735C247.942 170.815 248.904 171.644 249.306 172.045C249.6 174.185 250.161 176.057 250.188 176.137C250.295 176.485 250.616 176.699 250.964 176.699C251.044 176.699 251.124 176.699 251.178 176.645C251.605 176.538 251.846 176.084 251.712 175.656C250.723 172.42 250.054 167.366 251.739 166.777C254.226 165.921 256.045 169.799 256.071 169.826C256.098 169.879 256.125 169.933 256.178 169.986C256.259 170.922 256.499 171.912 256.847 172.874C256.954 173.195 257.275 173.409 257.596 173.409C257.676 173.409 257.783 173.383 257.89 173.356C258.318 173.195 258.532 172.741 258.371 172.313C257.622 170.28 257.569 168.114 258.184 166.777C258.344 166.403 258.665 165.921 259.173 165.734C259.789 165.52 260.323 165.52 260.805 165.788C261.848 166.349 262.436 167.927 262.57 168.489C262.596 168.542 262.596 168.596 262.623 168.649C262.596 169.639 262.73 170.815 263.051 172.233C263.158 172.687 263.586 172.955 264.014 172.848C264.468 172.741 264.736 172.313 264.629 171.885C263.773 168.061 264.602 167.205 264.87 167.018C265.511 166.59 266.768 167.125 267.41 167.633C270.058 169.692 272.331 176.966 272.705 182.234C272.946 185.443 271.609 186.968 270.432 188.305C269.924 188.893 269.442 189.455 269.122 190.096C268.827 190.685 268.4 191.594 278.241 220.636C283.054 234.836 288.028 249.009 288.082 249.143C288.189 249.464 288.51 249.678 288.831 249.678C288.911 249.678 289.018 249.678 289.071 249.625C289.472 249.491 289.713 249.036 289.553 248.608Z" fill="#1A1A1A"/>
<path d="M461.476 277.276L469.578 232.884C469.578 232.884 472.119 215.448 470.407 210.982C468.696 206.516 459.015 201.569 456.903 196.193C454.79 190.818 450.057 177.741 450.057 177.741C450.057 177.741 452.811 175.121 455.86 178.865C458.882 182.608 465.514 190.15 468.348 188.064C471.183 185.978 473.242 154.716 475.943 154.476C478.671 154.235 477.895 177.447 479.313 177.715C480.73 177.982 483.912 163.327 483.912 163.327C483.912 163.327 485.303 147.897 487.71 147.977C490.116 148.058 491.186 159.717 489.983 164.985C488.779 170.254 489.528 182.1 490.732 181.993C491.935 181.886 496.936 166.189 496.936 166.189C496.936 166.189 500.733 157.444 502.017 158.3C503.3 159.156 502.953 166.456 502.097 171.002C501.241 175.548 500.171 181.298 500.171 181.298L504.183 176.351C504.183 176.351 508.381 166.724 509.825 167.526C511.27 168.328 509.852 175.067 509.852 175.067L505.573 186.78L502.364 197.905C502.364 197.905 495.679 226.332 495.064 237.296C494.449 248.261 494.074 269.574 495.679 272.944C495.706 272.997 477.441 277.811 461.476 277.276Z" fill="#F8F6F4"/>
<path d="M511.086 167.687C510.765 167.098 510.337 166.884 510.016 166.831C508.118 166.457 506.7 169.452 505.203 172.661C504.908 173.276 504.641 173.864 504.374 174.399C503.678 175.763 502.314 177.768 501.111 179.48C501.619 177.234 502.261 174.265 502.796 171.27C504.828 159.931 503.678 158.006 502.314 157.605C499.934 156.936 497.929 161.777 494.265 172.233C493.115 175.495 491.591 179.828 490.789 181.058C490.575 180.496 490.2 178.945 490.307 174.666C490.361 171.591 490.682 167.633 491.11 164.05C491.725 159.022 491.591 150.759 489.425 148.138C488.863 147.443 488.248 147.282 487.82 147.256C484.932 147.068 484.29 152.791 483.782 157.391C483.675 158.327 483.568 159.129 483.488 159.664L483.434 159.905C481.402 171.484 480.118 175.79 479.45 177.394C479.289 175.897 479.263 173.196 479.209 170.922C479.049 161.857 478.755 155.332 476.428 154.048C475.973 153.781 475.251 153.62 474.315 154.182C473.059 154.931 472.363 158.915 470.732 171.35C469.876 177.769 468.726 186.567 467.817 187.503C467.469 187.824 467.015 187.931 466.426 187.85C464.153 187.529 460.784 184.401 458.243 180.202C456.799 177.849 455.141 176.485 453.323 176.191C451.157 175.843 449.606 177.1 449.552 177.153C449.285 177.394 449.204 177.742 449.311 178.063C449.392 178.196 454.74 192.557 456.157 196.488C456.933 198.681 459.447 200.927 462.362 203.548C465.009 205.901 467.978 208.602 469.743 211.41C470.545 212.694 471.16 218.898 466.533 246.202C463.886 261.846 460.73 276.955 460.704 277.116C460.597 277.544 460.891 277.972 461.319 278.052C461.372 278.078 461.426 278.078 461.479 278.078C461.854 278.078 462.174 277.811 462.362 277.383C462.415 277.249 465.544 262.087 468.218 246.416C473.647 214.432 471.828 211.464 471.213 210.501C469.341 207.506 466.266 204.725 463.538 202.291C460.891 199.911 458.404 197.691 457.762 195.873C456.532 192.423 452.2 180.817 451.157 178.036C451.611 177.822 452.333 177.555 453.189 177.715C454.526 177.956 455.783 179.052 456.96 180.978C459.821 185.711 463.485 189 466.293 189.401C467.362 189.535 468.298 189.268 468.994 188.626C470.17 187.529 470.973 182.315 472.39 171.511C473.219 165.173 474.369 156.508 475.251 155.492C475.546 155.332 475.653 155.385 475.706 155.412C475.92 155.546 476.749 156.321 477.204 160.841C477.498 163.889 477.578 167.633 477.631 170.922C477.685 173.142 477.712 175.201 477.819 176.699C477.899 178.089 478.033 179.828 479.209 179.828C480.145 179.828 481.081 179.159 482.926 170.949C483.916 166.59 484.772 161.75 485.039 160.172L485.093 159.931C485.2 159.37 485.28 158.514 485.387 157.551C485.601 155.679 485.868 153.353 486.323 151.508C486.804 149.529 487.419 148.833 487.74 148.86C487.9 148.86 488.061 148.967 488.221 149.181C489.665 150.919 490.281 157.765 489.532 163.863C489.077 167.446 488.783 171.457 488.703 174.559C488.569 180.416 489.211 181.86 489.772 182.448C490.067 182.743 490.468 182.903 490.869 182.876C492.152 182.769 492.981 180.737 495.789 172.768C496.939 169.478 498.143 166.109 499.293 163.435C500.924 159.691 501.726 159.209 501.887 159.156C502.047 159.343 503.063 160.814 501.138 171.404C500.175 176.592 498.972 181.646 498.678 182.769C498.437 183.117 498.544 183.572 498.865 183.812C499.132 184.026 499.48 184.053 499.774 183.866C499.934 183.785 500.068 183.652 500.148 183.491C500.897 182.502 504.507 177.742 505.818 175.121C506.085 174.559 506.379 173.971 506.673 173.329C507.262 172.019 507.904 170.682 508.519 169.692C509.16 168.649 509.535 168.435 509.669 168.382C510.15 169.158 510.096 174.372 506.433 182.502C502.475 191.273 498.785 209.832 498.758 210.02C498.651 210.501 498.544 211.063 498.41 211.731C496.485 221.278 491.35 246.549 494.934 273.104C494.987 273.506 495.335 273.8 495.736 273.8C495.763 273.8 495.816 273.8 495.87 273.853C496.324 273.8 496.618 273.372 496.565 272.944C493.035 246.656 498.089 221.545 500.015 212.105C500.148 211.437 500.255 210.849 500.362 210.367C500.389 210.18 504.053 191.808 507.93 183.197C510.872 176.592 512.236 169.933 511.086 167.687Z" fill="#1A1A1A"/>
<path d="M476.83 182.662C476.376 182.635 476.001 182.956 475.975 183.411L475.814 186.272C475.787 186.727 476.108 187.101 476.563 187.128C476.59 187.128 476.59 187.128 476.616 187.128C477.044 187.128 477.392 186.807 477.419 186.379L477.579 183.518C477.606 183.063 477.285 182.689 476.83 182.662Z" fill="#1A1A1A"/>
<path d="M485.949 183.491C485.521 183.598 485.254 184.026 485.361 184.454C485.628 185.55 485.708 186.834 485.521 187.101C485.254 187.449 485.307 187.957 485.655 188.225C485.815 188.358 485.976 188.412 486.163 188.412C486.403 188.412 486.617 188.305 486.751 188.118C487.58 187.101 487.072 184.775 486.912 184.08C486.805 183.652 486.377 183.384 485.949 183.491Z" fill="#1A1A1A"/>
<path d="M495.096 189.723C495.256 189.856 495.417 189.91 495.604 189.91C495.845 189.91 496.085 189.803 496.219 189.589C496.968 188.626 496.914 186.246 496.861 185.551C496.834 185.123 496.46 184.775 496.005 184.802C495.577 184.829 495.23 185.203 495.256 185.658C495.337 186.915 495.203 188.305 494.962 188.6C494.695 188.947 494.748 189.455 495.096 189.723Z" fill="#1A1A1A"/>
<path d="M501.998 189.695C502.159 189.776 502.292 189.829 502.453 189.829C502.72 189.829 502.961 189.722 503.095 189.482C503.763 188.465 503.683 187.315 503.523 186.807C503.389 186.379 502.961 186.139 502.533 186.272C502.132 186.406 501.891 186.834 501.998 187.262C501.998 187.289 502.185 187.957 501.784 188.572C501.517 188.947 501.624 189.455 501.998 189.695Z" fill="#1A1A1A"/>
<path d="M105.538 48.0143C104.282 48.0143 103.212 47.6399 102.41 46.8912C101.821 46.3563 101.393 45.6343 101.019 44.6181C99.6017 40.6335 100.618 35.9269 103.559 32.905C104.656 31.7818 105.752 31.2737 106.876 31.3807C107.731 31.4877 108.534 32.1027 108.881 32.9585C109.175 33.6805 109.068 34.4293 108.587 34.9642C108.266 35.3385 107.705 35.392 107.33 35.0711C106.956 34.7502 106.902 34.1886 107.223 33.8142C107.277 33.7607 107.223 33.6538 107.196 33.627C107.116 33.3864 106.849 33.1724 106.662 33.1724C105.993 33.0922 105.298 33.6805 104.816 34.1619C102.329 36.7291 101.474 40.687 102.677 44.0565C102.944 44.7785 103.239 45.2866 103.586 45.6343C104.897 46.8377 107.223 46.0622 108.159 45.6878C113.615 43.4147 117.412 38.5208 121.156 33.3061C121.851 32.3167 122.546 31.3272 123.188 30.3377C122.573 30.0168 122.012 29.6157 121.584 29.0809C120.755 28.0647 120.3 26.7008 120.193 24.9091C120.059 22.5023 120.969 19.9618 122.466 18.4642C123.482 17.448 124.713 16.9666 126.05 17.0469C126.932 17.1004 127.708 17.448 128.162 18.0096C128.777 18.7316 128.831 19.6944 128.804 20.4164C128.67 23.5452 127.574 26.4066 125.996 29.1878C126.344 29.1878 126.691 29.1611 127.066 29.0809C128.724 28.7332 130.221 27.717 131.478 26.7543C135.891 23.3848 139.635 19.0525 142.336 14.1854C141.828 13.8378 141.373 13.3832 141.052 12.8751C140.517 11.9926 140.41 11.0031 140.758 10.1206C141.213 8.99748 142.576 8.11498 143.86 8.59634C144.448 8.81028 144.903 9.2649 145.144 9.85323C145.545 10.8694 145.277 12.153 144.876 13.1158C146.133 13.0623 147.39 12.367 148.674 11.5915C154.396 8.16847 158.782 4.93265 161.644 0.413218C161.911 -0.0146567 162.446 -0.121625 162.874 0.145796C163.302 0.413218 163.409 0.948072 163.141 1.37595C159.905 6.48371 154.717 10.0404 149.583 13.1158C147.925 14.1052 146.16 15.0679 144.208 14.854C144.127 14.854 144.047 14.8273 143.994 14.8273C141.159 19.9885 137.228 24.5882 132.548 28.1449C131.131 29.2146 129.419 30.3912 127.414 30.7924C126.585 30.9528 125.756 30.9796 124.953 30.8726C124.204 32.0225 123.429 33.1724 122.6 34.3223C118.696 39.7777 114.711 44.8855 108.828 47.319C107.678 47.7469 106.555 48.0143 105.538 48.0143ZM125.809 18.7584C125.06 18.7584 124.365 19.0525 123.75 19.6676C122.6 20.7908 121.905 22.8499 122.012 24.7486C122.092 26.1392 122.413 27.1822 123.001 27.8775C123.322 28.2518 123.723 28.546 124.178 28.7599C125.782 26.059 126.932 23.2778 127.066 20.3094C127.093 19.9083 127.066 19.3734 126.852 19.106C126.691 18.9188 126.397 18.8119 125.996 18.7851C125.916 18.7584 125.862 18.7584 125.809 18.7584ZM143.111 10.1474C142.844 10.1474 142.523 10.3881 142.389 10.6822C142.202 11.1368 142.362 11.5647 142.55 11.8589C142.71 12.0996 142.897 12.3402 143.138 12.5007C143.512 11.7252 143.646 10.8427 143.486 10.4148C143.432 10.2811 143.352 10.2009 143.245 10.1741C143.218 10.1474 143.165 10.1474 143.111 10.1474Z" fill="#1A1A1A"/>
<path d="M471.856 131.05C471.722 131.05 471.589 131.023 471.455 130.943C468.219 129.285 466.481 125.568 466.321 119.872C463.432 120.433 460.304 120.701 457.924 118.829C456.934 118.053 456.132 116.93 455.49 115.379C453.725 111.154 453.832 106.608 454.153 101.553C454.233 100.243 454.34 98.7988 454.581 97.3279C450.676 97.7291 446.184 97.6221 443.884 94.2793C442.386 92.1132 442.467 89.4925 442.654 86.738C442.761 85.1335 443.082 80.8815 446.21 79.5711C446.665 79.3839 447.2 79.5979 447.387 80.0525C447.574 80.5071 447.36 81.042 446.906 81.2292C445.034 82.0314 444.606 84.6789 444.445 86.8985C444.258 89.3053 444.205 91.6051 445.355 93.2899C447.253 96.0176 451.452 95.9373 454.982 95.5095C455.303 94.3863 455.731 93.2899 456.346 92.2737C457.041 91.1505 458.084 90.1343 459.261 89.4123C461.026 88.3426 462.844 89.1181 463.7 90.4552C464.582 91.7656 464.582 93.7445 462.924 94.9479C462.63 95.1618 462.309 95.349 461.988 95.5362C460.223 96.499 458.244 96.8466 456.399 97.0873C456.132 98.5046 455.998 100.029 455.891 101.66C455.597 106.501 455.463 110.833 457.094 114.684C457.629 115.941 458.244 116.85 458.993 117.438C460.865 118.909 463.7 118.561 466.267 118.053C466.294 116.743 466.454 115.406 467.203 114.256C467.765 113.4 468.701 112.812 469.69 112.624C470.492 112.491 471.268 112.651 471.883 113.106C471.963 113.159 472.017 113.24 472.07 113.32C473.14 114.871 472.418 116.983 471.134 118.08C470.225 118.855 469.075 119.23 468.032 119.47C468.139 124.658 469.53 127.974 472.204 129.338C472.632 129.552 472.819 130.087 472.605 130.542C472.471 130.863 472.177 131.05 471.856 131.05ZM470.278 114.389C470.198 114.389 470.118 114.389 470.038 114.416C469.53 114.496 469.022 114.844 468.754 115.272C468.326 115.941 468.166 116.77 468.112 117.679C468.834 117.492 469.503 117.197 470.038 116.77C470.68 116.235 471.081 115.218 470.733 114.523C470.573 114.416 470.412 114.389 470.278 114.389ZM460.945 90.7226C460.705 90.7226 460.437 90.8028 460.143 90.9633C459.207 91.5249 458.405 92.3271 457.843 93.2364C457.442 93.8782 457.148 94.5468 456.907 95.2688C458.405 95.0281 459.849 94.7072 461.133 94.0119C461.373 93.8782 461.614 93.7178 461.855 93.5573C462.71 92.9422 462.577 92.0597 462.202 91.4714C461.935 91.0703 461.507 90.7226 460.945 90.7226Z" fill="#1A1A1A"/>
<path d="M273.716 65.7454C273.636 65.7454 273.556 65.7454 273.502 65.7454C272.272 65.6919 271.069 65.0233 270.24 63.9537C269.384 62.8305 269.01 61.4132 269.25 60.1295C269.732 57.6158 272.379 55.7171 275.027 56.038C275.508 56.0915 275.856 56.5461 275.802 57.0275C275.749 57.5088 275.294 57.8832 274.813 57.803C273.101 57.6158 271.31 58.8459 270.989 60.4772C270.828 61.2527 271.069 62.1619 271.63 62.884C272.139 63.5525 272.861 63.9537 273.583 63.9804C274.759 64.0339 276.016 63.2851 276.792 62.0282C277.594 60.7714 277.861 59.2203 278.049 57.7495C278.985 50.4756 277.861 42.9878 274.893 36.3023C273.021 36.6766 271.042 36.222 269.598 35.7941C265.587 34.6175 264.437 32.2909 264.704 30.5259C264.865 29.5097 265.48 28.6272 266.469 28.0656C267.673 27.3704 269.224 27.2366 270.507 27.7447C272.62 28.5737 273.904 30.4992 274.893 32.2642C275.214 32.8525 275.535 33.4676 275.856 34.0826C275.882 34.0559 275.909 34.0559 275.936 34.0292C277.38 33.1467 278.075 31.3549 278.637 29.5365C280.643 23.0649 281.418 16.3526 280.99 9.5868C280.963 9.10544 281.338 8.67757 281.819 8.65082C282.301 8.62408 282.728 8.99847 282.755 9.47982C283.21 16.4595 282.381 23.3858 280.322 30.0446C279.707 32.077 278.797 34.3233 276.845 35.5267C276.765 35.5802 276.658 35.6337 276.551 35.6872C279.6 42.6401 280.75 50.4221 279.787 57.9634C279.573 59.6482 279.225 61.4132 278.263 62.9642C277.246 64.6757 275.455 65.7454 273.716 65.7454ZM268.876 29.1621C268.341 29.1621 267.806 29.2958 267.378 29.5365C267.031 29.7504 266.576 30.1248 266.496 30.7399C266.255 32.4246 268.662 33.6013 270.133 34.0559C271.737 34.5373 273.075 34.6977 274.144 34.5908C273.904 34.0826 273.636 33.5746 273.342 33.0932C272.513 31.5956 271.443 29.9911 269.865 29.376C269.571 29.2423 269.224 29.1621 268.876 29.1621Z" fill="#1A1A1A"/>
<path d="M44.1362 35.5797L48.415 46.2766L64.1929 38.2539L59.9141 31.0335L44.1362 35.5797Z" fill="#FC9F5B"/>
<path d="M162.336 65.7981L168.754 72.2162L178.381 63.1238L172.765 56.7057L162.336 65.7981Z" fill="#F8F6F4"/>
<path d="M168.757 73.0182C168.543 73.0182 168.355 72.938 168.195 72.7775L161.777 66.3594C161.616 66.1989 161.536 65.985 161.536 65.7711C161.536 65.5571 161.643 65.3432 161.804 65.1827L172.233 56.0904C172.554 55.7962 173.062 55.823 173.356 56.1706L178.972 62.5887C179.266 62.9096 179.239 63.391 178.919 63.7119L169.291 72.8043C169.158 72.9647 168.97 73.0182 168.757 73.0182ZM163.515 65.8513L168.783 71.1195L177.287 63.0968L172.714 57.8554L163.515 65.8513Z" fill="#1A1A1A"/>
<path d="M20.8682 87.1918L25.9224 88.2615L28.0886 80.8807L21.4297 78.5274L20.8682 87.1918Z" fill="#F8F6F4"/>
<path d="M25.9165 89.0642C25.863 89.0642 25.8095 89.0642 25.756 89.0374L20.7018 87.9678C20.3006 87.8875 20.0332 87.5399 20.0599 87.1388L20.5948 78.4743C20.6215 78.2336 20.7552 77.9929 20.9424 77.8592C21.1564 77.7255 21.4238 77.6988 21.6645 77.779L28.35 80.1323C28.7512 80.266 28.9651 80.6939 28.8581 81.1218L26.692 88.5293C26.585 88.8502 26.2641 89.0642 25.9165 89.0642ZM21.718 86.5504L25.3549 87.3259L27.0931 81.3625L22.1458 79.6242L21.718 86.5504Z" fill="#1A1A1A"/>
<path d="M164.747 113.88L170.095 118.426L165.816 128.321L160.735 125.379L164.747 113.88Z" fill="#FC9F5B"/>
<path d="M205.121 49.7523L194.959 27.8237L190.092 30.3642L183.192 14.72L177.042 18.4639L188.006 40.3925L192.873 37.3172L200.842 52.1591L205.121 49.7523Z" fill="#FC9F5B"/>
<path d="M388.036 30.4976L390.977 27.2886L400.07 40.9271L393.652 45.7407L388.036 30.4976Z" fill="#FC9F5B"/>
<path d="M324.395 63.9261L331.08 59.9148L337.231 65.2632L329.743 73.2859L324.395 63.9261Z" fill="#FC9F5B"/>
<path d="M215.015 148.967L221.701 144.955L231.595 158.861L224.642 160.466L215.015 148.967Z" fill="#FC9F5B"/>
<path d="M443.127 56.9733L448.208 50.5552L457.033 61.5195L452.219 66.6005L443.127 56.9733Z" fill="#FC9F5B"/>
<path d="M451.417 61.0109L456.284 56.9729L461.311 66.1722L457.006 69.5417L451.417 61.0109Z" fill="#FC9F5B"/>
<path d="M448.268 252.539L412.568 208.04C412.568 208.04 407.567 201.381 407.968 194.562C408.369 187.743 409.171 184.614 404.277 180.335L399.999 177.313C399.999 177.313 396.87 169.906 392.859 167.686C388.847 165.467 386.521 167.579 385.906 169.505C385.906 169.505 381.547 168.863 380.022 171.163C378.498 173.463 379.327 176.431 379.327 176.431C379.327 176.431 376.278 177.126 375.102 179.881C373.952 182.635 374.968 185.309 374.968 185.309C374.968 185.309 372.615 186.486 371.893 188.358C371.171 190.23 369.406 193.787 376.974 201.916C384.542 210.019 388.74 210.287 394.811 220.021C400.881 229.728 411.658 248.047 417.381 265.055L448.268 252.539Z" fill="#F8F6F4"/>
<path d="M381.653 134.499C364.137 127.894 349.295 124.952 349.295 124.952L369.753 74.3827C369.753 74.3827 387.296 76.8163 404.892 81.416L381.653 134.499Z" fill="#F8F6F4"/>
<path d="M436.904 95.1885C439.177 86.0427 421.928 78.8758 403.957 73.982C403.209 73.768 402.46 73.5808 401.711 73.3937L378.472 126.477C389.731 130.729 402.112 136.505 412.328 144.02" fill="#F8F6F4"/>
<path d="M448.886 252.005L413.185 207.506C409.628 203.04 408.104 197.183 409.013 191.434C409.414 188.947 409.334 186.834 408.772 184.989C407.73 181.539 403.558 178.303 400.322 176.565C400.268 176.538 400.242 176.511 400.188 176.511C400.188 176.404 400.161 176.297 400.108 176.19C399.948 175.896 399.386 174.827 398.557 173.516L437.627 95.5628C437.708 95.4291 437.734 95.2686 437.708 95.1081C439.392 87.1122 428.08 79.7581 404.119 73.233C403.371 73.0191 402.622 72.8051 401.873 72.618C401.499 72.511 401.097 72.6982 400.937 73.0726L398.343 78.9826C383.394 75.4794 370.023 73.6074 369.863 73.5807C369.488 73.5272 369.141 73.7144 369.007 74.062L348.549 124.632C348.442 124.872 348.469 125.113 348.576 125.327C348.71 125.541 348.897 125.674 349.137 125.728C349.271 125.755 364.113 128.723 381.362 135.248C381.469 135.275 381.549 135.302 381.656 135.302C381.977 135.302 382.271 135.114 382.378 134.82L384.571 129.793C395.107 134.205 404.093 139.072 411.366 144.367L397.514 171.992C395.696 169.318 393.155 166.296 390.775 165.788C388.502 165.173 387.031 166.189 386.229 167.152C385.614 167.874 385.266 168.649 385.132 169.05C383.769 168.596 382.565 168.622 381.522 169.104C378.099 170.735 377.885 173.944 378.34 175.95C377.431 176.271 375.987 176.993 374.97 178.517C373.874 180.148 373.553 182.288 374.008 184.828C372.884 185.363 370.959 186.887 370.665 191.113C370.344 195.552 373.232 200.125 380.346 206.222L371.467 223.925C371.253 224.326 371.414 224.808 371.815 224.995C371.922 225.048 372.029 225.075 372.162 225.075C372.457 225.075 372.724 224.915 372.884 224.647L381.602 207.292C382.806 208.281 384.116 209.324 385.534 210.394C399.466 220.984 416.447 264.921 416.608 265.376C416.742 265.697 417.036 265.884 417.357 265.884C417.464 265.884 417.544 265.884 417.624 265.83C418.025 265.67 418.239 265.189 418.079 264.787C418.025 264.68 413.72 253.475 407.73 241.121C399.653 224.46 392.486 213.683 386.469 209.11C384.972 207.96 383.581 206.864 382.324 205.821L385.935 198.627C386.817 198.921 387.726 199.135 388.582 199.135C389.705 199.135 390.695 198.761 391.337 197.798C391.845 199.51 392.807 201.007 394.225 202.237C394.385 202.371 394.572 202.425 394.76 202.425C394.974 202.425 395.187 202.344 395.375 202.157C395.669 201.836 395.615 201.328 395.294 201.034C389.679 196.087 394.118 187.502 395.535 185.122L399.226 188.519C399.546 188.813 400.055 188.786 400.349 188.465C400.643 188.144 400.616 187.636 400.295 187.342L394.332 181.806C394.118 181.592 393.824 181.539 393.556 181.619C389.251 182.93 386.737 182.609 385.4 182.074C384.731 181.833 384.303 181.512 384.009 181.245C385.774 180.122 390.267 177.314 393.209 176.404C394.519 176.003 396.926 176.618 399.546 178.009C403.397 180.068 406.499 183.063 407.221 185.497C407.703 187.128 407.756 189 407.409 191.246C406.419 197.451 408.077 203.762 411.928 208.575L447.629 253.074C447.789 253.262 448.003 253.368 448.244 253.368C448.431 253.368 448.592 253.315 448.725 253.155C449.1 252.86 449.153 252.352 448.886 252.005ZM358.47 104.495L359.941 109.068C360.637 111.18 362.936 112.33 365.049 111.635C367.162 110.94 368.312 108.64 367.616 106.527L363.15 92.9955C363.15 92.9688 363.15 92.9688 363.124 92.942L370.29 75.2654C372.671 75.6131 381.495 76.9502 392.085 79.2233L371.467 130.087C361.225 126.798 353.095 124.926 350.394 124.364L358.47 104.495ZM379.517 126.049L402.14 74.3562C402.675 74.4899 403.183 74.6504 403.718 74.7841C426.636 81.0417 437.841 88.0482 436.103 95.0279V95.0547L426.342 114.523L422.277 101.981C421.208 98.6114 417.571 96.7662 414.201 97.8359C410.832 98.9055 408.986 102.542 410.056 105.912L418.106 130.916L412.089 142.896C403.478 136.692 392.54 131.023 379.517 126.049ZM390.08 196.728C389.144 198.574 385.32 196.702 383.688 195.899C383.448 195.766 383.26 195.686 383.1 195.605C381.656 194.937 377.457 194.482 376.976 194.429C376.521 194.402 376.147 194.723 376.094 195.151C376.067 195.605 376.388 195.98 376.816 196.033C378.019 196.167 381.388 196.595 382.431 197.076C382.592 197.156 382.779 197.237 382.993 197.344C383.394 197.531 383.902 197.771 384.491 198.039L381.121 204.751C374.703 199.189 372.002 194.99 372.269 191.22C372.564 187.395 374.302 186.406 374.89 186.165L378.126 187.048C382.672 188.278 387.004 190.578 390.695 193.733C390.748 193.84 391.096 194.75 390.08 196.728ZM382.405 180.362C382.084 180.576 381.977 181.031 382.137 181.378C382.217 181.539 383.528 184.133 388.288 184.133C389.732 184.133 391.47 183.892 393.61 183.277L394.358 183.972C393.85 184.801 392.674 186.834 391.845 189.321C391.818 189.348 391.791 189.348 391.791 189.374C391.256 189.829 388.475 189.348 385.828 188.305C385.721 188.251 385.614 188.251 385.507 188.251C383.287 187.075 380.934 186.139 378.554 185.497L375.666 184.721C375.238 182.528 375.452 180.737 376.334 179.426C377.484 177.661 379.463 177.287 379.49 177.287C379.57 177.26 379.65 177.233 379.73 177.207C380.292 177.1 382.324 176.913 385.025 178.704C383.555 179.587 382.512 180.282 382.405 180.362ZM386.523 177.795C383.608 175.629 381.175 175.468 379.944 175.575C379.677 174.425 379.436 171.805 382.244 170.468C383.982 169.665 386.469 171.163 388.234 172.58C389.491 173.596 390.561 174.666 391.23 175.388C389.679 176.03 387.994 176.939 386.523 177.795ZM392.861 174.8C392.273 174.158 390.935 172.714 389.251 171.377C388.341 170.655 387.486 170.093 386.657 169.665C386.737 169.478 386.978 168.756 387.486 168.168C388.234 167.285 389.197 167.018 390.401 167.339C390.427 167.339 390.427 167.339 390.454 167.339C392.914 167.847 396.097 172.5 397.862 175.442C395.856 174.693 394.091 174.452 392.861 174.8Z" fill="#1A1A1A"/>
<path d="M65.1273 275.858L111.017 216.33C111.017 216.33 119.066 214.03 119.013 213.362C119.013 213.362 118.478 217.908 119.681 217.961C120.885 218.015 125.698 209.725 125.698 209.725C125.698 209.725 129.924 207.853 127.57 203.521C127.57 203.521 129.977 201.515 129.175 199.563C128.373 197.611 128.587 196.835 128.587 196.835C128.587 196.835 132.571 195.765 132.17 190.684C132.17 190.684 133.855 189.615 133.668 189.748C133.48 189.882 127.062 179.453 127.062 179.453C127.062 179.453 116.098 180.924 114.493 181.592C112.889 182.261 50.5796 248.314 50.5796 248.314C50.5796 248.314 46.3008 257.674 52.8526 266.9C59.4045 276.126 65.1273 275.858 65.1273 275.858Z" fill="#F8F6F4"/>
<path d="M146.026 91.3105C146.026 72.2968 70.8005 80.2659 70.8005 80.2659L63.1255 134.285C63.1255 134.285 103.961 132.333 133.912 144.634" fill="#F8F6F4"/>
<path d="M146.829 91.3104C146.829 89.064 145.867 87.0316 143.968 85.3201C138.325 80.2123 124.232 77.6986 102.143 77.8055C85.8037 77.8858 70.8815 79.4368 70.7211 79.4635C70.3467 79.517 70.0525 79.7845 69.999 80.1589L62.324 134.178C62.2973 134.392 62.3775 134.633 62.538 134.82C62.6984 135.007 62.9391 135.087 63.1798 135.087C63.5809 135.061 103.614 133.296 133.004 145.116L125.355 178.864C122.36 179.212 116.049 180.041 114.124 180.897C113.669 181.111 112.492 181.645 80.3483 215.448C64.5169 232.108 48.7925 248.849 48.632 249.009C48.3111 249.33 48.3379 249.838 48.6588 250.132C48.8192 250.266 49.0332 250.346 49.2203 250.346C49.4343 250.346 49.6482 250.266 49.7819 250.079C74.6522 223.631 112.439 183.812 114.792 182.341C116.611 181.565 123.51 180.683 126.612 180.335L132.709 189.588C132.576 189.615 132.442 189.641 132.308 189.668C132.228 189.641 132.148 189.615 132.068 189.615C131.934 189.615 131.827 189.668 131.72 189.722C130.035 189.802 127.628 189.24 126.158 185.844C126.077 185.657 125.89 185.496 125.676 185.416C125.436 185.336 125.195 185.389 125.008 185.496L115.915 190.978C115.541 191.192 115.407 191.701 115.648 192.075C115.862 192.449 116.37 192.583 116.744 192.342L123.323 188.358L122.227 193.225C121.478 193.599 120.649 194 119.846 194.402C114.124 197.397 113.589 198.841 113.829 199.83C113.91 200.178 114.15 200.659 114.872 200.953C115.3 201.114 115.835 201.194 116.504 201.194C116.825 201.194 117.172 201.167 117.547 201.141C117.252 201.328 116.958 201.542 116.664 201.756C112.439 204.777 111.984 206.008 112.091 206.837C112.118 207.131 112.305 207.639 113.027 207.933C113.402 208.093 113.99 208.174 114.685 208.174C115.675 208.174 116.932 208.04 118.269 207.773C113.161 211.49 113.509 212.239 113.749 212.747C113.883 212.987 114.124 213.335 114.712 213.549C115.06 213.683 115.488 213.736 115.969 213.736C116.049 213.736 116.156 213.736 116.236 213.736C114.177 214.779 110.941 215.875 107.518 215.18C107.09 215.073 106.663 215.367 106.582 215.795C106.475 216.223 106.77 216.651 107.197 216.731C107.973 216.892 108.775 216.972 109.524 216.999L64.5169 275.377C64.2227 275.725 64.303 276.233 64.6506 276.5C64.7843 276.607 64.9715 276.66 65.132 276.66C65.3726 276.66 65.6133 276.554 65.7738 276.366L111.637 216.865C113.91 216.544 115.862 215.742 117.279 214.993L113.509 231.948C113.428 232.375 113.696 232.803 114.124 232.91C114.204 232.937 114.257 232.937 114.311 232.937C114.659 232.937 115.006 232.696 115.086 232.295L118.322 217.801C118.563 218.229 118.937 218.55 119.419 218.71C119.499 218.764 119.606 218.79 119.74 218.79C120.435 218.79 121.718 217.694 126.826 209.538C128.244 208.468 129.046 207.318 129.18 206.141C129.313 205.098 128.912 204.243 128.511 203.735C130.811 201.595 130.115 198.894 129.26 197.45C129.581 197.263 129.875 197.102 130.142 196.915C132.228 195.551 132.816 193.145 132.897 191.112C133.726 190.952 134.287 190.738 134.287 190.738C134.501 190.631 134.688 190.444 134.742 190.23C134.795 190.016 134.769 189.748 134.635 189.561L127.682 178.998C127.548 178.784 127.308 178.677 127.04 178.65L146.749 91.6045C146.803 91.5243 146.829 91.4173 146.829 91.3104ZM119.686 216.999C119.659 216.972 119.659 216.918 119.633 216.892C119.338 216.009 120.221 213.843 120.97 212.613C120.97 212.586 120.996 212.586 120.996 212.559C121.879 212.239 122.788 211.811 123.751 211.356C122.066 213.923 120.408 216.25 119.686 216.999ZM127.575 205.954C127.468 206.676 126.746 208.147 123.082 209.912C118.75 212.025 116.423 212.239 115.541 212.132C116.504 211.089 119.472 208.869 122.093 207.077C122.227 206.997 122.307 206.863 122.36 206.756C124.232 206.168 125.997 205.446 127.227 204.697C127.388 204.911 127.682 205.366 127.575 205.954ZM127.094 202.852C124.232 205.098 115.381 207.024 113.723 206.462C114.204 205.446 117.707 202.772 121.745 200.312C123.885 199.723 126.077 198.948 127.816 198.172C128.19 198.76 129.393 201.034 127.094 202.852ZM129.26 195.605C127.735 196.594 124.553 197.878 121.478 198.707C121.398 198.707 121.317 198.734 121.264 198.76C117.306 199.803 115.728 199.59 115.381 199.429C115.488 199.162 116.183 198.065 120.863 195.658C123.671 194.214 126.505 193.011 126.532 193.011C126.933 192.85 127.12 192.369 126.96 191.968C126.799 191.567 126.318 191.38 125.917 191.54C125.917 191.54 125.168 191.861 124.072 192.342L125.168 187.449C126.88 190.497 129.313 191.246 131.239 191.273C131.185 192.85 130.731 194.642 129.26 195.605ZM123.697 140.222C98.3725 132.814 69.6514 133.269 64.0623 133.429L66.2819 117.785L85.6165 107.409C90.0824 105.002 91.7939 99.3865 89.3871 94.9205C86.9803 90.4546 81.3645 88.7431 76.8985 91.1499L69.4909 95.1345L71.4966 80.9879C77.8345 80.3728 130.463 75.6127 142.791 86.3898L123.697 140.222Z" fill="#1A1A1A"/>
<path d="M117.869 116.902L98.2136 127.198C95.1383 128.803 91.3409 127.599 89.7364 124.551C88.1318 121.475 89.3352 117.678 92.3838 116.073L112.039 105.778C115.115 104.173 118.912 105.377 120.517 108.425C122.121 111.501 120.918 115.298 117.869 116.902Z" fill="#1A1A1A"/>
<path d="M248.103 249.251L221.708 201.115L202.16 167.018L190.554 161.777L181.167 170.228L182.905 171.083C182.905 171.083 181.568 175.897 185.366 178.839C185.366 178.839 181.568 181.192 184.43 184.989C184.43 184.989 181.702 185.925 183.413 189.321L184.617 192.664C184.617 192.664 187.157 200.633 187.933 200.874C188.708 201.088 190.233 199.617 190.233 199.617L190.714 197.077L197.132 201.543L226.147 269.949C226.147 269.949 235.908 270.618 242.193 263.665C249.039 256.097 248.103 249.251 248.103 249.251Z" fill="#F8F6F4"/>
<path d="M194.485 71.6825C218.5 94.6808 259.549 97.6492 259.549 97.6492L258.613 143.886C258.613 143.886 222.778 147.096 192.72 126.317" fill="#F8F6F4"/>
<path d="M259.627 96.8735C259.52 96.8735 249.278 96.0979 236.228 92.5412C224.247 89.2519 207.426 82.9141 195.152 71.201C195.018 71.0138 194.777 70.9068 194.537 70.8801C194.109 70.8533 193.734 71.201 193.708 71.6556L190.632 160.948C190.392 160.921 190.151 160.975 189.991 161.162L180.604 169.612C180.417 169.773 180.31 169.987 180.337 170.227C180.363 170.468 180.47 170.709 180.657 170.842C180.684 170.842 181.166 171.217 181.941 171.591C181.487 173.57 181.406 176.111 183.118 177.956C183.332 178.17 183.572 178.41 183.84 178.678C182.663 179.854 181.326 182.261 182.957 184.936C182.449 185.337 181.888 186.032 181.754 187.048C181.62 188.171 182.048 189.401 183.011 190.712C183.011 190.739 183.011 190.765 183.038 190.819C186.273 200.981 187.129 201.703 187.798 201.703C187.851 201.703 187.905 201.703 187.985 201.73C188.466 201.676 188.894 201.489 189.242 201.168L188.734 215.956C188.707 216.411 189.055 216.759 189.536 216.785C189.964 216.785 190.311 216.438 190.338 216.01L190.926 198.601C192.103 199.67 193.815 200.981 195.927 201.863L225.263 271.045C225.397 271.34 225.691 271.527 226.012 271.527C226.119 271.527 226.226 271.5 226.306 271.473C226.708 271.313 226.895 270.831 226.734 270.43L197.96 202.532C198.708 202.719 199.484 202.826 200.286 202.88C200.313 202.88 200.313 202.88 200.34 202.88C200.768 202.88 201.115 202.559 201.142 202.157C201.169 201.703 200.848 201.328 200.393 201.302C196.89 201.115 194.029 199.189 192.29 197.665C192.772 197.825 193.226 197.905 193.627 197.905C193.681 197.905 193.761 197.905 193.841 197.879C194.456 197.825 194.777 197.558 194.965 197.344C195.339 196.916 195.847 196.274 191.862 191.407C193.761 192.316 195.526 192.905 196.596 192.905C196.703 192.905 196.783 192.905 196.81 192.878C197.612 192.771 197.906 192.316 198.013 192.049C198.334 191.3 198.227 189.963 194.884 185.978C194.644 185.684 194.403 185.417 194.189 185.149C195.098 185.497 195.927 185.684 196.542 185.684C196.649 185.684 196.756 185.684 196.863 185.658C197.639 185.551 198.013 185.149 198.174 184.829C198.655 183.919 198.495 182.422 193.708 178.063C193.012 177.448 192.317 176.833 191.675 176.298L191.836 171.27L197.211 176.779C197.505 177.1 198.013 177.127 198.334 176.806C198.655 176.512 198.682 176.004 198.361 175.683L190.953 168.088C190.793 167.927 190.579 167.847 190.338 167.847C190.097 167.847 189.884 167.954 189.75 168.141C187.423 171.056 184.936 170.976 183.332 170.441C183.251 170.388 183.198 170.361 183.091 170.334C183.038 170.334 182.984 170.308 182.931 170.308C182.743 170.227 182.583 170.174 182.449 170.094L190.686 162.686C193.601 163.809 200.072 166.403 201.623 167.633C203.522 169.639 230.024 217.721 247.379 249.625C247.513 249.892 247.78 250.053 248.075 250.053C248.208 250.053 248.342 250.026 248.449 249.919C248.85 249.705 248.984 249.224 248.77 248.823C248.663 248.635 237.672 228.445 226.574 208.335C204.057 167.5 203.014 166.697 202.64 166.376C200.982 165.039 194.965 162.633 192.183 161.536L193.36 127.707C208.71 137.976 225.397 142.068 236.816 143.672C243.555 144.635 249.278 144.849 253.182 144.849C256.605 144.849 258.611 144.662 258.691 144.689C259.092 144.662 259.413 144.314 259.413 143.913L260.349 97.6758C260.376 97.2746 260.055 96.9002 259.627 96.8735ZM188.226 199.911C188.199 199.938 188.172 199.965 188.145 199.991C187.637 199.055 186.621 196.354 185.605 193.413C185.632 193.413 185.632 193.44 185.658 193.44C186.461 194.135 187.263 194.75 188.012 195.312C188.012 195.365 188.038 195.418 188.038 195.445C188.439 196.836 188.76 199.136 188.226 199.911ZM193.44 196.274C192.558 196.141 190.365 195.365 186.701 192.209C183.599 189.562 183.278 187.984 183.358 187.262C183.412 186.701 183.76 186.326 183.974 186.166C184.99 187.182 186.514 188.332 188.226 189.375C188.252 189.508 188.306 189.615 188.413 189.696C190.472 192.129 192.772 195.044 193.44 196.274ZM196.569 191.3C194.777 191.407 186.728 187.316 184.562 184.427C182.77 182.074 184.589 180.149 185.07 179.721C186.541 180.897 188.439 182.181 190.338 183.278C190.793 183.759 192.183 185.203 193.547 186.834C195.981 189.722 196.462 190.899 196.569 191.3ZM183.492 172.099C185.364 172.554 187.905 172.42 190.311 169.933L190.151 174.987C189.215 174.239 188.6 173.757 188.573 173.757C188.226 173.49 187.717 173.57 187.45 173.918C187.183 174.265 187.263 174.773 187.61 175.041C192.531 178.785 196.756 182.93 196.783 184.053C196.409 184.16 194.804 183.946 191.14 181.86C188.359 180.282 185.551 178.223 184.321 176.859C183.145 175.549 183.145 173.677 183.492 172.099ZM257.862 143.137C255.482 143.271 247.486 143.565 237.03 142.095C226.333 140.57 210.93 136.853 196.462 127.814L200.768 77.9667C206.945 82.5129 213.738 86.0429 220.263 88.7706L233.634 111.074C235.452 114.095 239.41 115.085 242.432 113.293C245.454 111.501 246.443 107.517 244.652 104.495L238.875 94.8678C248.609 97.3014 256.365 98.1838 258.745 98.3978L257.862 143.137Z" fill="#1A1A1A"/>
<path d="M210.991 120.594L203.503 108.48C202.326 106.581 202.915 104.094 204.813 102.918C206.712 101.741 209.199 102.329 210.376 104.228L217.863 116.342C219.04 118.241 218.452 120.728 216.553 121.905C214.654 123.055 212.141 122.466 210.991 120.594Z" fill="#1A1A1A"/>
<path d="M174.354 275.35L169.567 192.556C169.567 192.556 174.568 189.721 175.344 185.603C176.119 181.485 177.323 170.761 171.306 167.552L169.273 169.477C169.273 169.477 168.712 164.771 165.877 165.092C163.042 165.413 162.695 168.862 162.695 168.862C162.695 168.862 161.518 163.808 158.523 164.075C155.528 164.37 155.715 168.274 155.715 168.274C155.715 168.274 153.281 165.172 151.276 166.75C149.27 168.327 149.484 172.071 149.484 172.071C149.484 172.071 144.323 174.211 142.183 178.222C140.044 182.233 142.852 186.512 147.933 190.256C147.933 190.256 150.607 191.861 148.067 201.889C145.526 211.917 136.835 277.034 136.835 277.034C136.835 277.034 139.75 286.421 156.196 287.892C172.643 289.363 174.354 275.35 174.354 275.35Z" fill="#F8F6F4"/>
<path d="M171.653 192.021C173.231 190.978 175.397 189.561 176.172 185.764C176.707 183.143 176.921 179.8 176.761 176.832C176.627 174.318 176.172 170.949 174.728 168.996C174.087 168.114 172.402 166.616 170.69 167.124C170.396 167.231 170.129 167.365 169.861 167.552C169.674 166.75 169.3 165.868 168.631 165.226C167.909 164.53 166.973 164.21 165.85 164.29C164.967 164.343 164.165 164.798 163.497 165.573C163.256 165.868 163.015 166.188 162.828 166.563C162.748 166.402 162.668 166.215 162.587 166.055C161.625 164.156 160.181 163.193 158.469 163.3C156.945 163.381 155.848 164.664 155.207 167.124C154.752 166.643 154.19 166.188 153.495 165.921C152.666 165.627 151.81 165.68 150.955 166.081C150.286 166.402 149.484 167.338 148.548 171.403C147.05 172.259 138.573 177.554 140.418 183.277C141.434 186.432 143.654 188.224 145.446 189.641C146.943 190.845 148.147 191.781 148.254 193.145C148.494 196.006 139.509 254.598 136.032 276.928C135.952 277.356 136.273 277.757 136.701 277.837C136.754 277.837 136.781 277.837 136.835 277.837C137.236 277.837 137.583 277.57 137.61 277.195C138.118 273.933 150.152 196.675 149.858 193.038C149.698 191.005 148.12 189.748 146.462 188.411C144.777 187.047 142.825 185.496 141.969 182.795C140.819 179.132 145.579 175.334 148.093 173.623C148.066 173.783 148.04 173.917 148.013 174.077C147.398 177.474 147.023 180.816 147.023 180.843C146.97 181.271 147.291 181.672 147.719 181.726C147.745 181.726 147.772 181.726 147.799 181.726C148.2 181.726 148.548 181.431 148.628 181.03C149.296 175.013 150.687 168.141 151.65 167.526C152.104 167.312 152.506 167.258 152.933 167.419C153.789 167.739 154.511 168.809 154.779 169.317C154.484 171.483 154.538 173.409 154.538 173.489C154.538 173.917 154.912 174.265 155.34 174.265C155.795 174.265 156.169 173.89 156.142 173.436C156.062 170.066 156.784 165.012 158.576 164.905C161.197 164.744 161.919 168.943 161.919 168.996C161.919 169.05 161.946 169.077 161.946 169.13C161.785 170.066 161.732 171.082 161.812 172.125C161.839 172.553 162.213 172.874 162.614 172.874C162.641 172.874 162.641 172.874 162.721 172.847C163.149 172.821 163.47 172.446 163.443 171.991C163.283 169.852 163.791 167.739 164.753 166.616C165.021 166.322 165.449 165.921 165.984 165.894C166.625 165.841 167.134 166.001 167.535 166.376C168.364 167.205 168.524 168.863 168.497 169.451C168.497 169.558 168.497 169.665 168.551 169.772C168.283 170.681 168.096 171.831 168.016 173.222C167.989 173.65 168.31 174.024 168.765 174.051C169.193 174.077 169.567 173.756 169.594 173.302C169.808 169.371 170.824 168.782 171.145 168.675C171.867 168.435 172.937 169.317 173.418 169.959C175.397 172.66 175.611 180.282 174.568 185.443C173.926 188.572 172.241 189.695 170.744 190.658C170.075 191.085 169.46 191.487 168.979 192.021C168.524 192.53 167.882 193.278 170.637 234.595C172.001 254.866 173.525 275.19 173.552 275.404C173.578 275.831 173.926 276.152 174.354 276.152C174.381 276.152 174.381 276.152 174.461 276.152C174.916 276.126 175.236 275.751 175.21 275.297C172.83 243.928 169.567 196.434 170.316 193.011C170.637 192.69 171.118 192.369 171.653 192.021Z" fill="#1A1A1A"/>
<path d="M165.665 224.486C165.397 224.139 164.889 224.085 164.542 224.379C164.194 224.647 164.14 225.155 164.435 225.503L166.387 227.829C166.547 228.016 166.761 228.123 167.002 228.123C167.162 228.123 167.349 228.07 167.51 227.936C167.858 227.669 167.911 227.161 167.617 226.813L165.665 224.486Z" fill="#1A1A1A"/>
<path d="M164.086 230.423C163.819 230.049 163.31 229.969 162.963 230.236C162.588 230.504 162.508 231.012 162.776 231.359L165.45 235.103C165.584 235.344 165.851 235.451 166.092 235.451C166.252 235.451 166.413 235.397 166.573 235.29C166.947 235.023 167.028 234.515 166.76 234.167L164.086 230.423Z" fill="#1A1A1A"/>
<path d="M163.336 238.579C163.069 238.231 162.561 238.178 162.213 238.445C161.865 238.713 161.812 239.221 162.079 239.568L164.566 242.778C164.727 242.991 164.967 243.098 165.208 243.098C165.369 243.098 165.556 243.045 165.689 242.911C166.037 242.644 166.091 242.136 165.823 241.788L163.336 238.579Z" fill="#1A1A1A"/>
<path d="M351.949 237.377L335.423 172.394L337.509 148.352C337.509 148.352 339.113 141.747 338.043 137.736C336.974 133.724 336.091 133.644 335.449 133.644C334.834 133.644 335.53 125.301 333.711 125.782C331.893 126.263 328.042 140.062 326.892 143.111C325.742 146.133 323.897 149.85 322.533 148.887C321.169 147.925 318.762 143.031 317.612 135.356C316.463 127.681 313.762 120.139 312.023 121.236C310.285 122.332 310.873 130.622 310.873 130.622C310.873 130.622 308.895 125.381 307.397 126.13C305.926 126.878 310.071 154.236 308.36 156.108C308.36 156.108 305.578 154.877 303.439 152.016C301.3 149.155 295.283 144.314 293.438 147.523C293.438 147.523 294.427 151.481 299.508 157.899C304.589 164.317 312.799 173.597 312.799 173.597L316.917 239.463L351.949 237.377Z" fill="#F8F6F4"/>
<path d="M352.696 237.163L336.196 172.287C336.25 170.682 337.106 153.327 337.721 149.075C337.747 148.887 337.801 148.566 337.881 148.165C339.111 141.4 339.994 133.537 335.982 132.762C335.875 132.735 335.742 132.762 335.635 132.789C335.929 126.397 334.966 125.194 333.843 124.98C331.837 124.632 330.687 128.135 328.441 135.463C327.452 138.725 326.435 142.095 325.339 144.609C323.841 148.032 322.959 148.139 322.718 148.085C320.98 147.711 319.215 139.742 318.065 134.447C316.086 125.381 314.722 119.872 311.888 120.434C311.54 120.514 311.005 120.728 310.604 121.37C309.962 122.386 309.775 124.418 309.882 126.932C309.213 126.049 308.384 125.327 307.422 125.327C307.128 125.327 306.86 125.461 306.673 125.675C305.871 126.531 306.058 129.366 307.074 139.394C307.662 145.224 308.572 153.995 307.876 155.439C307.261 155.252 305.603 153.434 304.507 152.203C301.218 148.54 296.725 143.539 292.927 146.935C291.483 148.219 293.061 151.16 305.363 165.976C308.384 169.613 311.781 173.704 312.102 174.56C312.262 177.395 315.979 236.923 316.14 239.49C316.166 239.918 316.514 240.239 316.942 240.239C316.942 240.239 316.969 240.239 317.049 240.265C317.477 240.239 317.824 239.864 317.798 239.41C317.744 238.768 313.84 176.218 313.76 174.426C313.706 173.57 312.289 171.752 306.646 164.959C303.812 161.536 300.576 157.632 298.115 154.37C294.666 149.823 294.184 148.433 294.158 148.032C296.538 146.079 299.747 149.262 303.357 153.273C305.764 155.947 307.502 157.873 308.919 156.723C310.176 155.707 309.962 151.455 308.705 139.207C308.251 134.767 307.636 128.831 307.85 127.066C308.652 127.601 309.641 129.473 310.149 130.89C310.176 130.97 310.203 131.024 310.256 131.077C311.219 138.993 313.679 148.78 314.081 150.412C314.161 150.786 314.508 151.027 314.856 151.027C314.936 151.027 314.99 151.027 315.07 150.973C315.498 150.866 315.765 150.438 315.658 150.011C313.198 140.383 310.176 125.033 311.968 122.199C312.048 122.065 312.128 122.011 312.209 121.985C312.235 121.958 313.011 121.851 314.161 125.354C314.99 127.841 315.765 131.371 316.514 134.767C318.466 143.673 319.83 149.101 322.397 149.636C325.419 150.278 327.291 144.876 330.019 135.917C331.089 132.441 332.666 127.253 333.602 126.584C333.843 126.932 334.619 128.777 333.629 138.03C333.041 143.432 332.132 148.7 332.132 148.754C332.051 149.208 332.345 149.609 332.773 149.69C333.228 149.77 333.629 149.476 333.709 149.048C333.709 148.994 334.672 143.298 335.26 137.629C335.394 136.399 335.474 135.302 335.555 134.286C335.608 134.313 335.661 134.313 335.688 134.34C336.811 134.554 338.362 136.613 336.33 147.898C336.25 148.352 336.196 148.647 336.17 148.861C335.528 153.353 334.645 171.565 334.619 172.34C334.619 172.42 334.619 172.501 334.645 172.581L351.172 237.564C351.252 237.939 351.6 238.18 351.948 238.18C352.028 238.18 352.081 238.18 352.108 238.126C352.536 238.019 352.803 237.591 352.696 237.163Z" fill="#1A1A1A"/>
<path d="M336.545 194.964C336.438 194.964 336.331 194.937 336.197 194.884L333.871 193.814C333.469 193.627 333.282 193.145 333.469 192.744C333.657 192.343 334.138 192.156 334.539 192.343L336.866 193.413C337.267 193.6 337.454 194.081 337.267 194.482C337.133 194.803 336.839 194.964 336.545 194.964Z" fill="#1A1A1A"/>
<path d="M337.609 198.708C337.476 198.708 337.369 198.681 337.262 198.628L334.053 197.023C333.651 196.836 333.491 196.354 333.705 195.953C333.892 195.552 334.373 195.392 334.775 195.606L337.984 197.21C338.385 197.397 338.545 197.879 338.331 198.28C338.171 198.547 337.903 198.708 337.609 198.708Z" fill="#1A1A1A"/>
<path d="M339.563 204.591C339.429 204.591 339.322 204.564 339.215 204.511L335.659 202.719C335.257 202.532 335.097 202.051 335.311 201.649C335.498 201.248 335.979 201.088 336.381 201.302L339.937 203.094C340.338 203.281 340.499 203.762 340.285 204.163C340.151 204.431 339.857 204.591 339.563 204.591Z" fill="#1A1A1A"/>
<path d="M49.6783 192.932C49.6783 192.932 72.1417 172.608 72.944 169.211C72.944 169.211 72.0615 166.992 67.9432 168.757C63.8517 170.548 57.3266 177.394 56.8987 175.442C56.4441 173.49 62.3274 145.946 62.3274 145.946L59.3857 148.005C59.3857 148.005 60.2682 140.517 58.5032 140.437C56.7115 140.356 53.5024 146.24 52.4327 149.716C51.363 153.193 45.8274 167.901 43.9555 166.216C42.0835 164.531 39.4093 157.926 39.4895 152.31C39.5697 146.694 37.2699 141.266 36.3607 141.694C35.4782 142.148 34.2213 148.994 34.2213 148.994C34.2213 148.994 31.5471 148.727 30.932 150.411C30.3169 152.096 29.6751 159.584 29.8623 162.9C30.0495 166.189 27.6962 187.53 27.6962 187.53L1.62256 249.304C1.62256 249.304 4.377 260.161 17.0261 264.788C29.6751 269.414 36.2804 257.648 36.2804 256.578C36.2804 255.508 49.6783 192.932 49.6783 192.932Z" fill="#F8F6F4"/>
<path d="M73.5868 168.65C70.351 164.719 65.1363 168.997 61.3389 172.126C60.082 173.196 58.1833 174.747 57.5148 174.827C57.0602 173.303 59.253 164.772 60.7238 159.076C63.2376 149.315 63.8259 146.534 63.1841 145.571C63.0237 145.304 62.783 145.17 62.4888 145.117C61.5261 144.983 60.5634 145.571 59.7611 146.374C60.2425 143.913 60.3494 141.908 59.8948 140.811C59.6007 140.116 59.1193 139.822 58.7717 139.688C56.044 138.725 53.8778 143.967 50.5618 152.631C48.6364 157.686 45.6947 165.307 43.9297 165.414C43.6891 165.414 42.8066 165.2 41.8438 161.563C41.1486 158.942 40.6404 155.439 40.1323 152.07C39.0092 144.475 38.3941 140.838 36.3617 140.891C35.2118 140.945 34.0619 141.961 33.4201 148.353C33.3131 148.299 33.1794 148.272 33.0457 148.272C28.9541 148.433 28.6599 156.348 28.8471 163.221C28.8739 163.622 28.8739 163.943 28.8739 164.13C28.8471 168.409 27.0822 185.711 26.9217 187.316L0.901543 248.983C0.74109 249.385 0.928285 249.866 1.32942 250.026C1.43639 250.053 1.54336 250.08 1.65032 250.08C1.94449 250.08 2.23865 249.893 2.37236 249.598L28.446 187.824C28.4727 187.744 28.4995 187.664 28.4995 187.583C28.5797 186.808 30.4249 168.677 30.4784 164.13C30.4784 163.943 30.4517 163.622 30.4517 163.168C30.1308 151.722 31.976 149.93 33.0992 149.877C33.1526 149.877 33.2329 149.877 33.2863 149.85C33.2061 150.84 33.1259 151.963 33.0724 153.193C32.805 158.889 32.912 164.665 32.912 164.719C32.912 165.147 33.2863 165.494 33.7142 165.494C33.741 165.494 33.741 165.494 33.741 165.494C34.1688 165.468 34.5165 165.12 34.5165 164.665C34.5165 164.612 34.4095 159.29 34.6502 153.835C35.0513 144.528 36.0943 142.817 36.3884 142.523C37.2174 143.352 37.993 148.7 38.5278 152.284C39.8917 161.536 40.9346 167.152 44.01 166.992C46.6307 166.858 48.7968 161.697 52.0594 153.193C53.2895 149.93 54.5731 146.561 55.7765 144.234C57.4345 140.945 58.1833 141.186 58.2101 141.186C58.2903 141.212 58.3705 141.319 58.424 141.453C59.7611 144.528 54.4929 159.237 50.6153 168.382C50.4548 168.784 50.642 169.265 51.0432 169.425C51.1501 169.452 51.2571 169.479 51.3641 169.479C51.685 169.479 51.9791 169.292 52.0861 169.024C52.7279 167.473 56.6323 158.167 58.7717 150.465C58.8519 150.412 58.9321 150.305 58.9856 150.224C59.7879 148.754 61.018 147.203 61.847 146.801C61.7668 148.593 60.296 154.343 59.1728 158.675C56.0974 170.602 55.2417 174.774 56.3381 175.977C57.5683 177.314 59.5739 175.656 62.3551 173.383C66.5269 169.96 70.1638 167.286 72.2497 169.586C72.1428 169.987 71.4475 171.271 67.3826 175.255C64.4677 178.117 60.6971 181.486 57.3543 184.454C50.749 190.338 49.0642 191.916 48.9038 192.745C48.5561 194.51 35.3188 255.776 35.185 256.391C35.1048 256.846 35.3722 257.247 35.8001 257.354C35.8536 257.38 35.9071 257.38 35.9606 257.38C36.335 257.38 36.6559 257.113 36.7628 256.685C37.2977 254.198 49.92 195.873 50.4816 193.092C50.9362 192.29 54.894 188.733 58.424 185.604C72.8113 172.795 74.817 170.147 73.5868 168.65Z" fill="#1A1A1A"/>
<path d="M37.5659 211.331C37.6996 211.464 37.9136 211.545 38.1007 211.545C38.3147 211.545 38.5286 211.464 38.6891 211.277C38.9832 210.956 38.9565 210.448 38.6356 210.154L36.309 208.015C35.9881 207.72 35.48 207.747 35.1858 208.068C34.8917 208.389 34.9184 208.897 35.2393 209.191L37.5659 211.331Z" fill="#1A1A1A"/>
<path d="M37.5677 215.663C37.7816 215.663 37.9956 215.556 38.156 215.395C38.4502 215.075 38.3967 214.566 38.0758 214.272L35.2144 211.785C34.8935 211.491 34.3854 211.545 34.0912 211.866C33.797 212.186 33.8505 212.695 34.1714 212.989L37.0328 215.476C37.1933 215.609 37.3805 215.663 37.5677 215.663Z" fill="#1A1A1A"/>
</svg>
