<svg width="64" height="27" viewBox="0 0 64 27" fill="none" xmlns="http://www.w3.org/2000/svg">
<path d="M9.58137 27C7.77072 27 6.1361 26.5943 4.67752 25.7828C3.24409 24.9713 2.09986 23.8525 1.24482 22.4262C0.414941 20.9754 0 19.3033 0 17.4098C0 15.5164 0.427515 13.8566 1.28255 12.4303C2.13758 10.9795 3.28181 9.84836 4.71524 9.03689C6.17383 8.22541 7.80844 7.81967 9.6191 7.81967C11.4046 7.81967 13.0141 8.22541 14.4475 9.03689C15.9061 9.84836 17.0503 10.9795 17.8802 12.4303C18.7352 13.8566 19.1628 15.5164 19.1628 17.4098C19.1628 19.3033 18.7352 20.9754 17.8802 22.4262C17.0503 23.8525 15.9061 24.9713 14.4475 25.7828C12.9889 26.5943 11.3669 27 9.58137 27ZM9.58137 22.9057C10.8388 22.9057 11.9327 22.4508 12.8632 21.541C13.7937 20.6066 14.2589 19.2295 14.2589 17.4098C14.2589 15.5902 13.7937 14.2254 12.8632 13.3156C11.9327 12.3811 10.8513 11.9139 9.6191 11.9139C8.33655 11.9139 7.23004 12.3811 6.29957 13.3156C5.39424 14.2254 4.94158 15.5902 4.94158 17.4098C4.94158 19.2295 5.39424 20.6066 6.29957 21.541C7.23004 22.4508 8.32398 22.9057 9.58137 22.9057Z" fill="white"/>
<path d="M21.5938 26.5574V0H26.4222V26.5574H21.5938Z" fill="white"/>
<path d="M29.4697 26.5574V0H34.2981V26.5574H29.4697Z" fill="white"/>
<path d="M39.9484 5.42213C39.0682 5.42213 38.339 5.16393 37.7606 4.64754C37.2073 4.13115 36.9307 3.47951 36.9307 2.69262C36.9307 1.90574 37.2073 1.26639 37.7606 0.774589C38.339 0.258196 39.0682 0 39.9484 0C40.8286 0 41.5453 0.258196 42.0986 0.774589C42.677 1.26639 42.9662 1.90574 42.9662 2.69262C42.9662 3.47951 42.677 4.13115 42.0986 4.64754C41.5453 5.16393 40.8286 5.42213 39.9484 5.42213ZM37.5342 26.5574V8.2623H42.3626V26.5574H37.5342Z" fill="white"/>
<path d="M54.6072 27C52.7211 27 51.0488 26.6066 49.5902 25.8197C48.1316 25.0328 46.9874 23.9262 46.1575 22.5C45.3276 21.0738 44.9127 19.4262 44.9127 17.5574C44.9127 15.6639 45.3151 13.9795 46.1198 12.5041C46.9497 11.0287 48.0813 9.88525 49.5148 9.07377C50.9734 8.23771 52.6834 7.81967 54.645 7.81967C56.4808 7.81967 58.1028 8.21312 59.5111 9C60.9194 9.78689 62.0133 10.8689 62.7929 12.2459C63.5976 13.5984 64 15.1107 64 16.7828C64 17.0533 63.9874 17.3361 63.9623 17.6311C63.9623 17.9262 63.9497 18.2336 63.9246 18.5533H49.7034C49.804 19.9795 50.3069 21.0984 51.2123 21.9098C52.1427 22.7213 53.2618 23.1271 54.5695 23.1271C55.5503 23.1271 56.3676 22.918 57.0214 22.5C57.7004 22.0574 58.2034 21.4918 58.5303 20.8033H63.4342C63.0821 21.959 62.4911 23.0164 61.6612 23.9754C60.8565 24.9098 59.8506 25.6475 58.6435 26.1885C57.4615 26.7295 56.1161 27 54.6072 27ZM54.645 11.6557C53.463 11.6557 52.4194 11.9877 51.514 12.6516C50.6087 13.291 50.0303 14.2746 49.7788 15.6025H59.0961C59.0207 14.3975 58.568 13.4385 57.7382 12.7254C56.9083 12.0123 55.8772 11.6557 54.645 11.6557Z" fill="white"/>
</svg>
